<svg width="300" height="160" viewBox="0 0 300 160" fill="none" xmlns="http://www.w3.org/2000/svg">
<path d="M289.339 150.096C287.419 150.096 285.659 149.616 284.059 148.656C282.459 147.696 281.179 146.416 280.219 144.816C279.323 143.216 278.875 141.488 278.875 139.632C278.875 137.712 279.323 135.984 280.219 134.448C281.179 132.848 282.459 131.568 284.059 130.608C285.659 129.648 287.387 129.168 289.243 129.168C291.291 129.168 293.083 129.648 294.619 130.608C296.219 131.568 297.467 132.848 298.363 134.448C299.323 135.984 299.803 137.712 299.803 139.632C299.803 141.488 299.323 143.216 298.363 144.816C297.467 146.416 296.219 147.696 294.619 148.656C293.083 149.616 291.323 150.096 289.339 150.096Z" fill="white"/>
<path d="M226.969 148.944V83.568H242.521V148.944H226.969ZM256.153 148.944V121.872C256.153 119.44 255.769 117.84 255.001 117.072C254.233 116.304 253.113 115.92 251.641 115.92C250.553 115.92 249.401 116.144 248.185 116.592C246.969 116.976 245.753 117.584 244.537 118.416C243.385 119.184 242.233 120.112 241.081 121.2L235.897 111.024C237.497 109.232 239.353 107.568 241.465 106.032C243.641 104.432 245.977 103.152 248.473 102.192C251.033 101.168 253.721 100.656 256.537 100.656C259.673 100.656 262.233 101.2 264.217 102.288C266.201 103.376 267.737 104.848 268.825 106.704C269.913 108.496 270.649 110.544 271.033 112.848C271.481 115.152 271.705 117.552 271.705 120.048V148.944H256.153Z" fill="white"/>
<path d="M201.046 150.48C197.142 150.48 193.494 149.776 190.102 148.368C186.774 146.896 183.638 144.368 180.694 140.784L188.95 132.24C191.19 134.416 193.366 135.984 195.478 136.944C197.654 137.904 199.894 138.384 202.198 138.384C203.35 138.384 204.31 138.16 205.078 137.712C205.846 137.2 206.23 136.592 206.23 135.888C206.23 135.248 205.974 134.704 205.462 134.256C205.014 133.808 204.054 133.36 202.582 132.912C201.174 132.464 199.094 131.888 196.342 131.184C191.286 129.904 187.574 128.08 185.206 125.712C182.838 123.28 181.654 120.112 181.654 116.208C181.654 113.328 182.422 110.704 183.958 108.336C185.494 105.904 187.702 103.984 190.582 102.576C193.462 101.104 196.854 100.368 200.758 100.368C205.43 100.368 209.398 101.232 212.662 102.96C215.926 104.688 218.646 106.768 220.822 109.2L211.702 117.36C210.166 116.016 208.342 114.928 206.23 114.096C204.182 113.264 201.942 112.848 199.51 112.848C198.23 112.848 197.174 113.072 196.342 113.52C195.51 113.904 195.094 114.48 195.094 115.248C195.094 115.952 195.638 116.592 196.726 117.168C197.878 117.68 200.214 118.352 203.734 119.184C209.558 120.592 213.782 122.544 216.406 125.04C219.03 127.472 220.342 130.768 220.342 134.928C220.342 138 219.51 140.72 217.846 143.088C216.246 145.392 213.974 147.216 211.03 148.56C208.15 149.84 204.822 150.48 201.046 150.48Z" fill="white"/>
<path d="M148.177 150.192C144.849 150.192 141.905 149.552 139.345 148.272C136.785 146.928 134.769 145.072 133.297 142.704C131.889 140.272 131.185 137.52 131.185 134.448C131.185 131.12 131.953 128.304 133.489 126C135.089 123.632 137.169 121.84 139.729 120.624C142.353 119.344 145.233 118.704 148.369 118.704C153.041 118.704 156.849 119.792 159.793 121.968C162.737 124.08 164.657 127.216 165.553 131.376L159.217 129.936V119.28C159.217 117.68 158.641 116.304 157.489 115.152C156.337 114 154.545 113.424 152.113 113.424C150.385 113.424 148.401 113.648 146.161 114.096C143.921 114.544 141.553 115.376 139.057 116.592L134.641 105.552C137.457 104.144 140.561 102.992 143.953 102.096C147.345 101.136 150.865 100.656 154.513 100.656C158.929 100.656 162.641 101.456 165.649 103.056C168.721 104.656 171.025 106.928 172.561 109.872C174.097 112.752 174.865 116.176 174.865 120.144V148.944H161.809L158.833 139.632L165.553 137.52C164.593 141.424 162.673 144.528 159.793 146.832C156.977 149.072 153.105 150.192 148.177 150.192ZM153.457 139.632C155.249 139.632 156.689 139.152 157.777 138.192C158.865 137.232 159.409 135.984 159.409 134.448C159.409 132.976 158.865 131.76 157.777 130.8C156.689 129.84 155.249 129.36 153.457 129.36C151.537 129.36 150.033 129.84 148.945 130.8C147.921 131.76 147.409 132.976 147.409 134.448C147.409 135.984 147.921 137.232 148.945 138.192C150.033 139.152 151.537 139.632 153.457 139.632Z" fill="white"/>
<path d="M122.125 149.424C119.565 149.424 117.165 148.944 114.925 147.984C112.685 146.96 110.861 145.328 109.453 143.088C108.109 140.848 107.438 137.872 107.438 134.16V83.568H122.894V128.688C122.894 131.12 123.278 132.688 124.046 133.392C124.878 134.032 125.998 134.352 127.406 134.352V149.04C126.83 149.168 125.998 149.264 124.91 149.328C123.886 149.392 122.957 149.424 122.125 149.424Z" fill="white"/>
<path d="M81.5145 150.48C77.6105 150.48 73.9625 149.776 70.5705 148.368C67.2425 146.896 64.1065 144.368 61.1625 140.784L69.4185 132.24C71.6585 134.416 73.8345 135.984 75.9465 136.944C78.1225 137.904 80.3625 138.384 82.6665 138.384C83.8185 138.384 84.7785 138.16 85.5465 137.712C86.3145 137.2 86.6985 136.592 86.6985 135.888C86.6985 135.248 86.4425 134.704 85.9305 134.256C85.4825 133.808 84.5225 133.36 83.0505 132.912C81.6425 132.464 79.5625 131.888 76.8105 131.184C71.7545 129.904 68.0425 128.08 65.6745 125.712C63.3065 123.28 62.1225 120.112 62.1225 116.208C62.1225 113.328 62.8905 110.704 64.4265 108.336C65.9625 105.904 68.1705 103.984 71.0505 102.576C73.9305 101.104 77.3225 100.368 81.2265 100.368C85.8985 100.368 89.8665 101.232 93.1305 102.96C96.3945 104.688 99.1145 106.768 101.291 109.2L92.1705 117.36C90.6345 116.016 88.8105 114.928 86.6985 114.096C84.6505 113.264 82.4105 112.848 79.9785 112.848C78.6985 112.848 77.6425 113.072 76.8105 113.52C75.9785 113.904 75.5625 114.48 75.5625 115.248C75.5625 115.952 76.1065 116.592 77.1945 117.168C78.3465 117.68 80.6825 118.352 84.2025 119.184C90.0265 120.592 94.2505 122.544 96.8745 125.04C99.4985 127.472 100.811 130.768 100.811 134.928C100.811 138 99.9785 140.72 98.3145 143.088C96.7145 145.392 94.4425 147.216 91.4985 148.56C88.6185 149.84 85.2905 150.48 81.5145 150.48Z" fill="white"/>
<path d="M28.488 159.888L15.336 153.84L52.968 76.656L66.12 82.704L28.488 159.888Z" fill="url(#paint0_linear_1_4)"/>
<path d="M231.033 72.192C226.233 72.192 222.009 71.136 218.361 69.024C214.777 66.912 211.961 63.968 209.913 60.192C207.865 56.416 206.841 52.128 206.841 47.328C206.841 42.592 207.865 38.368 209.913 34.656C211.961 30.944 214.777 28.032 218.361 25.92C222.009 23.744 226.233 22.656 231.033 22.656C236.473 22.656 241.145 23.968 245.049 26.592C248.953 29.216 251.737 32.736 253.401 37.152L239.481 43.488C238.649 41.696 237.593 40.32 236.313 39.36C235.033 38.336 233.337 37.824 231.225 37.824C228.729 37.824 226.617 38.688 224.889 40.416C223.225 42.144 222.393 44.448 222.393 47.328C222.393 50.336 223.225 52.704 224.889 54.432C226.617 56.096 228.729 56.928 231.225 56.928C233.337 56.928 235.033 56.448 236.313 55.488C237.593 54.528 238.649 53.184 239.481 51.456L253.401 57.6C251.737 62.016 248.921 65.568 244.953 68.256C241.049 70.88 236.409 72.192 231.033 72.192Z" fill="white"/>
<path d="M200.338 70.944H184.69V23.904H200.338V70.944ZM183.538 9.024C183.538 6.272 184.37 4.096 186.034 2.496C187.698 0.831999 189.874 0 192.562 0C195.314 0 197.49 0.831999 199.09 2.496C200.69 4.096 201.49 6.272 201.49 9.024C201.49 11.648 200.69 13.792 199.09 15.456C197.49 17.056 195.314 17.856 192.562 17.856C189.874 17.856 187.698 17.056 186.034 15.456C184.37 13.792 183.538 11.648 183.538 9.024Z" fill="white"/>
<path d="M150.589 90.24C148.093 90.24 145.501 89.856 142.813 89.088C140.189 88.32 137.725 87.04 135.421 85.248C133.181 83.52 131.357 81.152 129.949 78.144L129.085 76.416L140.125 70.944C141.661 73.312 143.197 75.008 144.733 76.032C146.333 77.056 148.349 77.568 150.781 77.568C153.405 77.568 155.549 76.704 157.213 74.976C158.941 73.312 159.805 70.784 159.805 67.392V53.856H160.765V36.672H159.805L163.837 23.904H175.357V63.936C175.357 69.504 174.397 74.24 172.477 78.144C170.557 82.048 167.741 85.024 164.029 87.072C160.381 89.184 155.901 90.24 150.589 90.24ZM148.477 68.544C144.317 68.544 140.605 67.584 137.341 65.664C134.077 63.68 131.517 60.96 129.661 57.504C127.805 54.048 126.877 50.112 126.877 45.696C126.877 41.28 127.773 37.344 129.565 33.888C131.421 30.368 133.949 27.616 137.149 25.632C140.349 23.648 144.029 22.656 148.189 22.656C152.029 22.656 155.389 23.648 158.269 25.632C161.149 27.552 163.389 30.24 164.989 33.696C166.653 37.088 167.485 41.088 167.485 45.696C167.485 50.496 166.685 54.624 165.085 58.08C163.549 61.472 161.341 64.064 158.461 65.856C155.645 67.648 152.317 68.544 148.477 68.544ZM151.645 54.912C154.205 54.912 156.317 54.048 157.981 52.32C159.709 50.528 160.573 48.32 160.573 45.696C160.573 42.944 159.709 40.704 157.981 38.976C156.317 37.184 154.205 36.288 151.645 36.288C149.021 36.288 146.845 37.184 145.117 38.976C143.453 40.704 142.621 42.944 142.621 45.696C142.621 48.32 143.453 50.528 145.117 52.32C146.845 54.048 149.021 54.912 151.645 54.912Z" fill="white"/>
<path d="M94.458 72.192C91.13 72.192 88.186 71.552 85.626 70.272C83.066 68.928 81.05 67.072 79.578 64.704C78.17 62.272 77.466 59.52 77.466 56.448C77.466 53.12 78.234 50.304 79.77 48C81.37 45.632 83.45 43.84 86.01 42.624C88.634 41.344 91.514 40.704 94.65 40.704C99.322 40.704 103.13 41.792 106.074 43.968C109.018 46.08 110.938 49.216 111.834 53.376L105.498 51.936V41.28C105.498 39.68 104.922 38.304 103.77 37.152C102.618 36 100.826 35.424 98.394 35.424C96.666 35.424 94.682 35.648 92.442 36.096C90.202 36.544 87.834 37.376 85.338 38.592L80.922 27.552C83.738 26.144 86.842 24.992 90.234 24.096C93.626 23.136 97.146 22.656 100.794 22.656C105.21 22.656 108.922 23.456 111.93 25.056C115.002 26.656 117.306 28.928 118.842 31.872C120.378 34.752 121.146 38.176 121.146 42.144V70.944H108.09L105.114 61.632L111.834 59.52C110.874 63.424 108.954 66.528 106.074 68.832C103.258 71.072 99.386 72.192 94.458 72.192ZM99.738 61.632C101.53 61.632 102.97 61.152 104.058 60.192C105.146 59.232 105.69 57.984 105.69 56.448C105.69 54.976 105.146 53.76 104.058 52.8C102.97 51.84 101.53 51.36 99.738 51.36C97.818 51.36 96.314 51.84 95.226 52.8C94.202 53.76 93.69 54.976 93.69 56.448C93.69 57.984 94.202 59.232 95.226 60.192C96.314 61.152 97.818 61.632 99.738 61.632Z" fill="white"/>
<path d="M0 70.944V23.904H11.52L14.592 33.6L8.928 33.024C10.528 31.232 12.352 29.568 14.4 28.032C16.512 26.432 18.816 25.152 21.312 24.192C23.808 23.168 26.432 22.656 29.184 22.656C32.256 22.656 34.72 23.2 36.576 24.288C38.496 25.376 39.968 26.848 40.992 28.704C42.016 30.496 42.72 32.544 43.104 34.848C43.552 37.152 43.776 39.552 43.776 42.048V70.944H28.224V43.872C28.224 41.44 27.84 39.84 27.072 39.072C26.304 38.304 25.312 37.92 24.096 37.92C22.368 37.92 20.672 38.4 19.008 39.36C17.408 40.256 15.776 41.536 14.112 43.2L10.752 35.424H15.552V70.944H0ZM56.256 70.944V43.872C56.256 41.44 55.872 39.84 55.104 39.072C54.4 38.304 53.44 37.92 52.224 37.92C50.56 37.92 48.896 38.4 47.232 39.36C45.568 40.256 43.904 41.536 42.24 43.2L37.152 33.024C38.752 31.232 40.576 29.568 42.624 28.032C44.736 26.432 47.04 25.152 49.536 24.192C52.032 23.168 54.624 22.656 57.312 22.656C60.384 22.656 62.88 23.2 64.8 24.288C66.72 25.376 68.192 26.848 69.216 28.704C70.24 30.496 70.944 32.544 71.328 34.848C71.712 37.152 71.904 39.552 71.904 42.048V70.944H56.256Z" fill="white"/>
<defs>
<linearGradient id="paint0_linear_1_4" x1="40.728" y1="76.656" x2="40.728" y2="159.888" gradientUnits="userSpaceOnUse">
<stop stop-color="#A855F7"/>
<stop offset="1" stop-color="#6366F1"/>
</linearGradient>
</defs>
</svg>
