<svg height="1000" viewBox="0 0 1000 1000" width="1000" xmlns="http://www.w3.org/2000/svg"><path d="m961.7535 63.0389-168.0535 45.2594a8.5532 8.5532 0 0 0 -3.8238 14.3069l33.8662 33.8661 55.0621 55.0622 33.8655 33.8665a8.5531 8.5531 0 0 0 14.3069-3.8237l45.26-168.0538a8.5532 8.5532 0 0 0 -10.4834-10.4836z" fill="#010101"/><path d="m961.0908 60.635-10.9678 2.9538-27.818 7.4918-37.0406 9.9756-38.6355 10.4051-32.6027 8.78-18.9421 5.1014a15.6106 15.6106 0 0 0 -6.2288 2.7279 11.1265 11.1265 0 0 0 -3.44 11.9242 13.4014 13.4014 0 0 0 3.4551 5.13l23.7561 23.7561 12.0935 12.0936 23.3972 23.3972 24.7481 24.7483 11.1147 11.1147 25.027 25.0273c.6328.6328 1.2566 1.2764 1.8992 1.8992a11.1641 11.1641 0 0 0 12.3343 2.25c3.6092-1.5747 5.4944-4.7742 6.4691-8.3936l4.6145-17.1341 8.505-31.58 10.3351-38.3754 10.111-37.5433 7.8148-29.0148c1.1718-4.3511 2.3941-8.6921 3.5163-13.0563a11.0425 11.0425 0 0 0 -13.5155-13.6787c-3.1124.7728-1.794 5.5823 1.3254 4.8078a6.1166 6.1166 0 0 1 7.63 5.6887 8.1627 8.1627 0 0 1 -.3585 2.2664l-1.3651 5.0688-6.234 23.1476-9.265 34.4019-10.3651 38.4868-9.4085 34.9354-6.598 24.4991-1.5969 5.93c-.0913.339-.1778.68-.274 1.0174a6.0062 6.0062 0 0 1 -5.4414 4.5194 6.4632 6.4632 0 0 1 -5.1181-2.1785l-3.29-3.2906-12.3615-12.3615-17.9067-17.9066-16.708-16.708-27.11-27.11-11.8981-11.8981-23.28-23.2806-9.2554-9.2554c-.1892-.1891-.3816-.3756-.5678-.5677a6.4727 6.4727 0 0 1 -1.1516-1.5751 6.6375 6.6375 0 0 1 -.6173-2.1569 6.1 6.1 0 0 1 4.4991-6.416c3.74-1.07 7.5161-2.0242 11.2716-3.0356l27.5029-7.407 36.5667-9.8479 37.9888-10.2309 32.5638-8.77 19.5156-5.2558 2.6334-.7092c3.094-.8336 1.7808-5.6446-1.3263-4.8079z"/><path d="m888.257 131.7509c-28.9378 30.7943-57.393 62.1441-87.0494 92.25-24.3614 24.73-50.6215 48.613-81.9491 64.1959-14.0763 7.0017-29.7685 12.2112-45.271 13.7876-14.5646 1.481-32.1865 1.5594-43.8345-7.1984a22.6923 22.6923 0 0 1 -6.22-6.9834 10.5823 10.5823 0 0 1 -1.6363-3.57c-.2139-.6722-.4046-1.3561-.57-2.0422q-.2471-1.025-.4218-2.0646.138 1.1136.0356.0442a30.5532 30.5532 0 0 1 3.9805-17.418 51.5043 51.5043 0 0 1 31.8468-24.9527c27.2845-7.6072 58.03 2.015 79.483 20.8916 25.5335 22.467 35.9147 56.2262 33.636 89.9865-4.974 73.6915-65.9294 127.2183-127.31 159.2032-32.1064 16.73-69.9619 28.5072-105.5429 19.008-14.554-3.8855-28.3606-10.9195-39.1405-21.3912a67.014 67.014 0 0 1 -13.38-17.9921 38.2984 38.2984 0 0 1 -3.1932-7.8635q-.7917-2.5732-1.3625-5.2089-.2289-1.0536-.423-2.115c-.0119-.065-.4841-3.2241-.2833-1.62a62.6372 62.6372 0 0 1 .6549-19.9624 56.5057 56.5057 0 0 1 6.3995-17.6254 44.9654 44.9654 0 0 1 12.0257-14.41c.118-.0962 1.4207-1.0637 2.5887-1.823a49.481 49.481 0 0 1 4.5267-2.6149 40.4533 40.4533 0 0 1 9.1245-3.1355 39.94 39.94 0 0 1 18.7263.5369 54.2443 54.2443 0 0 1 19.54 9.8005 74.1012 74.1012 0 0 1 24.5165 35.0694c10.4014 32.4414-6.0465 67.3584-25.7966 93.4552-11.1343 14.7123-24.3327 27.8763-37.8788 40.35a558.3156 558.3156 0 0 1 -45.62 37.6492c-15.9365 11.8212-32.3825 22.9446-49.1326 33.5774-16.5358 10.4966-33.2506 21.433-51.0226 29.7409-15.2037 7.1074-32.04 10.8781-47.63 5.9442a38.2321 38.2321 0 0 1 -16.6488-10.3094 22.4311 22.4311 0 0 1 -6.2694-15.4335c.0166-.7036.0517-1.4207.1236-2.1225-.1577 1.54.1194-.6748.2023-1.04a40.6892 40.6892 0 0 1 1.302-4.6365 19.6016 19.6016 0 0 1 1.6807-3.4417c.3529-.6146.7251-1.2212 1.1138-1.8132.0076-.0116 1.9134-2.4973.9652-1.3627a18.5024 18.5024 0 0 1 6.2253-5.2841 11.3789 11.3789 0 0 1 6.9958-1.5216 14.55 14.55 0 0 1 6.0366 2.1208 19.6224 19.6224 0 0 1 5.4435 5.2955 36.7944 36.7944 0 0 1 5.9034 17.8937c1.9736 32.91-25.8528 60.061-49.2121 79.4906-30.8312 25.6444-63.9715 48.8961-97.1286 71.4069q-50.917 34.5683-104.2734 65.3478-26.31 15.1755-53.1555 29.3912c-11.3441 6.0137-1.2788 23.2346 10.0658 17.2206a1684.4481 1684.4481 0 0 0 228.8415-146.0023c30.9858-23.4991 65.2743-48.46 79.5693-86.1859 6.5875-17.3852 7.4686-36.8367-.6735-53.8353-7.5337-15.7282-25.5793-26.5864-42.9266-20.3177-16.5564 5.983-27.841 24.0313-27.02 41.5177.8633 18.3844 14.3888 33.209 30.7122 40.2348 41.2541 17.7562 82.4644-10.976 116.2669-32.188 36.8762-23.1408 72.527-48.6486 104.5-78.2817 29.4481-27.2928 58.3334-59.9361 68.1938-99.9055 4.6211-18.732 4.9013-38.7673-2.18-56.9224a94.6548 94.6548 0 0 0 -33.9654-43.72c-14.722-10.2199-32.862-14.7131-50.532-11.1979-16.67 3.3163-30.7827 14.486-39.7247 28.6741a79.84 79.84 0 0 0 -11.7662 46.0662c.9608 17.8049 7.9689 33.8652 19.4367 47.42 24.7572 29.2628 66.0138 39.9941 102.9313 35.2372 42.3043-5.451 82.2-26.8917 116.27-51.7687 31.9551-23.3327 60.9068-52.8742 77.25-89.4014 16.6073-37.1179 21.43-81.201 5.9379-119.5689-13.7408-34.0312-42.9638-60.5322-78.7315-69.7255-34.59-8.89-75.0905.3264-93.7781 33.1062-8.6077 15.0987-10.6 34.3844-.0263 49.0969 11.58 16.1129 31.8279 21.4888 50.7859 21.7766 38.8923.59 75.1587-16.6087 105.6205-39.6044 33.1332-25.0124 60.9805-55.8631 89.3019-86.0015l48.0214-51.1021c8.7845-9.348-5.2906-23.4789-14.1022-14.1021z"/></svg>