<svg height="950" viewBox="105 25 790 950" width="790" xmlns="http://www.w3.org/2000/svg"><path d="m421.6607 249.6052c4.4066 1.0859 8.8172-.238 12.9083-1.8654a6.0811 6.0811 0 0 0 .649.9638 1.5616 1.5616 0 0 0 1.1073.4588 1.5945 1.5945 0 0 0 1.1076-.4588 1.5755 1.5755 0 0 0 .4585-1.1074l-.0558-.4163a1.5627 1.5627 0 0 0 -.3515-.6246l.1629.211a4.0143 4.0143 0 0 1 -.3956-.6615 4.1458 4.1458 0 0 1 -.1695-.6228 4.0137 4.0137 0 0 1 .0058-.6985 1.7656 1.7656 0 0 0 -.1886-1.0356 1.5663 1.5663 0 0 0 -2.1428-.5618 1.52 1.52 0 0 0 -.72.936c-.0288.1782-.0541.3574-.074.537a1.0913 1.0913 0 0 0 -.1945.0478c-3.5261 1.4046-7.4494 2.8205-11.2748 1.8779-1.9567-.4823-2.7918 2.5376-.8323 3.0204z"/><path d="m437.8239 237.0879c.326-.0777.6536-.1408.9839-.1979l.0791-.0119c.0481-.0056.0961-.0113.1442-.0162q.2493-.0261.5-.0427a12.5793 12.5793 0 0 1 1.9343.0249c.0479.0042.3056.0345.3375.0358.1042.0157.2085.0314.3122.05q.4944.087.9807.2137t.96.2919c.1356.0474.2689.0993.4035.1489.07.0284.1058.0425.1206.0481.0553.0244.1106.0485.1657.0736a1.6055 1.6055 0 0 0 2.1427-.5618 1.5847 1.5847 0 0 0 -.5618-2.1429 14.4076 14.4076 0 0 0 -9.3355-.9335 1.58 1.58 0 0 0 -1.0938 1.9266 1.5992 1.5992 0 0 0 1.9267 1.0934z"/><path d="m224.14 260.6226a1.58 1.58 0 0 0 -1.5662 1.5661 36.1834 36.1834 0 0 0 5.1655 16.4913c1.0467 1.7195 3.7566.1472 2.7046-1.5809a32.7834 32.7834 0 0 1 -4.7377-14.91 1.6024 1.6024 0 0 0 -1.5662-1.5665z"/><path d="m233.3491 254.7216a1.6012 1.6012 0 0 0 -1.0938 1.9266 57.6045 57.6045 0 0 0 5.64 16.4787 1.5665 1.5665 0 1 0 2.7048-1.581 54.8669 54.8669 0 0 1 -5.3243-15.73 1.58 1.58 0 0 0 -1.9267-1.0943z"/><path d="m260.42 271.7181c-3.71 2.5153-7.4466-1.8573-9.2274-4.82a24.49 24.49 0 0 1 -3.4752-12.9744c.03-2.0163-3.1022-2.0171-3.1323 0a27.8438 27.8438 0 0 0 2.69 12.2866c1.69 3.5807 4.2728 7.4052 8.1323 8.8412a7.3847 7.3847 0 0 0 6.5937-.6291 1.6048 1.6048 0 0 0 .5619-2.1429 1.581 1.581 0 0 0 -2.143-.5614z"/><path d="m313.06 241.4922a1.5763 1.5763 0 0 0 -1.0941 1.9265 59.9985 59.9985 0 0 1 3.5606 12.277 1.58 1.58 0 0 0 1.9266 1.0938 1.6009 1.6009 0 0 0 1.0938-1.9265 59.9985 59.9985 0 0 0 -3.5606-12.277 1.6166 1.6166 0 0 0 -1.9263-1.0938z"/><path d="m326.9594 252.2811a1.5783 1.5783 0 0 0 1.5662-1.5662 41.4994 41.4994 0 0 0 -3.7742-14.1313 1.58 1.58 0 0 0 -2.143-.5619 1.6017 1.6017 0 0 0 -.5619 2.1428 37.16 37.16 0 0 1 3.3467 12.55 1.6068 1.6068 0 0 0 1.5662 1.5666z"/><path d="m332.8345 230.89c-1.068-1.7042-3.7792-.1337-2.7046 1.581a36.73 36.73 0 0 1 5.2532 24.1844 1.0251 1.0251 0 0 0 .002.1425c-2.7068 2.7522-5.2057 5.9991-5.28 10.0194-.0373 2.0165 3.0951 2.0165 3.1323 0 .07-3.7819 3.223-6.6968 5.7609-9.1844 2.9057-2.8479 5.6684-5.969 6.1487-10.1676a1.5754 1.5754 0 0 0 -1.5662-1.5661 1.6033 1.6033 0 0 0 -1.5662 1.5661 10.893 10.893 0 0 1 -3.222 5.9256 39.5515 39.5515 0 0 0 -5.9581-22.5009z"/><path d="m346.9465 270.7149q.7686-3.0225 1.3719-6.0843a68.755 68.755 0 0 0 1.6822-14.5322c-.0375-2.0132-3.17-2.02-3.1323 0a60.6224 60.6224 0 0 1 -1.2567 12.06c-.7406 4.0253-1.7551 7.9635-2.8191 11.9123-1.1822 4.3887-2.2044 9.27-.0716 13.54.4858.9725 1.2085 1.7733 1.7838 2.6874a2.3134 2.3134 0 0 1 .346 2.2026c-.5868 1.7423-2.5876 3.0406-4.1436 4.019a57.3754 57.3754 0 0 1 -14.9468 6.6385 1.5675 1.5675 0 0 0 .8328 3.02 60.6638 60.6638 0 0 0 14.086-5.9785c3.7244-2.1773 9.4178-5.9585 6.7882-11.038-.5116-.9884-1.3054-1.7972-1.8486-2.7681a8.2634 8.2634 0 0 1 -.9337-2.8648 18.2377 18.2377 0 0 1 .5883-6.502c.4953-2.1193 1.1367-4.2019 1.6732-6.3119z"/><path d="m424.1781 417.2263-2.0831.1468q.0738 1.0477.1588 2.0944l2.0816-.1688q-.0841-1.0357-.1573-2.0724z"/><path d="m424.5146 421.3686-2.0795.1912q.0963 1.0454.2031 2.09l2.0775-.2131q-.1057-1.0336-.2011-2.0681z"/><path d="m425.4458 429.6268-2.07.2758q.1389 1.0405.2878 2.0788l2.0668-.2967q-.1475-1.0281-.2846-2.0579z"/><path d="m427.4512 441.93-2.051.3936q.1977 1.0293.4048 2.0576l2.0469-.4122q-.205-1.019-.4007-2.039z"/><path d="m426.0357 433.74-2.0643.3166q.1591 1.0369.3283 2.0721l2.0607-.3364q-.1671-1.0254-.3247-2.0523z"/><path d="m426.7053 437.8415-2.0576.3559q.1785 1.0331.3671 2.0647l2.054-.3747q-.1861-1.0221-.3635-2.0459z"/><path d="m424.9378 425.5027-2.075.234q.1175 1.0431.2463 2.0851l2.0724-.2564q-.1273-1.0305-.2437-2.0627z"/><path d="m487.1693 574.2109a10.494 10.494 0 0 1 .3816.9776l1.9807-.6623a12.5422 12.5422 0 0 0 -.4589-1.1741q-.2056-.4554-.4374-.8947l-1.8476.9727q.2023.3839.3816.7808z"/><path d="m488.1 578.5357q0 .1957-.0079.39l2.0867.0851q.01-.2367.01-.4756a12.5167 12.5167 0 0 0 -.1323-1.8l-2.0663.3018a10.4172 10.4172 0 0 1 .1098 1.4987z"/><path d="m485.7689 571.7515 1.7211-1.1828c-.3931-.5717-.8231-1.14-1.3148-1.7369l-1.6121 1.3276c.4533.5506.8476 1.0706 1.2058 1.5921z"/><path d="m483.2259 568.6345 1.5333-1.4178c-.4788-.5177-.97-1.0265-1.4647-1.5312l-1.4913 1.4616c.4805.4905.9575.9845 1.4227 1.4874z"/><path d="m423.7754 408.9237-2.0877.055q.0279 1.0507.067 2.1005l2.0867-.078q-.0385-1.0381-.066-2.0775z"/><path d="m423.9306 413.0777-2.0856.1014q.0511 1.05.1134 2.0979l2.0846-.1239q-.0615-1.037-.1124-2.0754z"/><path d="m447.6677 505.23-1.92.8208q.4114.9627.828 1.9235l1.9159-.83q-.4141-.9566-.8239-1.9143z"/><path d="m458.0611 527.9832-1.8777.9131q.4576.9418.9215 1.8807l1.8726-.9243q-.4612-.9336-.9164-1.8695z"/><path d="m456.2576 524.2279-1.8863.8953q.448.9447.9011 1.8883l1.8825-.9039q-.4509-.939-.8973-1.8797z"/><path d="m465.8146 542.6894-1.8046 1.0506q.53.9093 1.0712 1.81l1.7894-1.0762q-.534-.8878-1.056-1.7844z"/><path d="m461.8044 535.4148-1.85.97q.4871.9291.9832 1.854l1.84-.9876q-.4911-.9156-.9732-1.8364z"/><path d="m459.9058 531.7143-1.8654.9381q.4707.9368.9491 1.87l1.8582-.9529q-.4744-.9257-.9419-1.8552z"/><path d="m428.2707 446.0042-2.0434.43q.2157 1.0258.44 2.05l2.04-.4476q-.2226-1.0157-.4366-2.0324z"/><path d="m452.7343 516.6681-1.8991.8687q.4355.9522.8743 1.9027l1.8958-.8759q-.4371-.9466-.871-1.8955z"/><path d="m454.4834 520.4555-1.8929.882q.4423.9488.8876 1.895l1.8894-.8891q-.444-.9434-.8841-1.8879z"/><path d="m442.9162 493.668-1.9429.7647q.3831.974.7713 1.946l1.9394-.7744q-.3865-.9675-.7678-1.9363z"/><path d="m451.0139 512.8684-1.9057.8535q.4278.9555.8595 1.9092l1.9027-.861q-.4304-.9501-.8565-1.9017z"/><path d="m441.4128 489.7842-1.9516.7433q.3727.9785.7512 1.9549l1.947-.7545q-.3763-.9712-.7466-1.9437z"/><path d="m444.462 497.5365-1.9353.7846q.3934.97.7915 1.9383l1.9312-.7943q-.3961-.9636-.7874-1.9286z"/><path d="m449.3241 509.0555-1.9123.8382q.42.9592.8442 1.9159l1.909-.8463q-.4221-.9533-.8409-1.9078z"/><path d="m446.0462 501.39-1.9276.8035q.403.9663.81 1.9307l1.9235-.8127q-.4049-.9593-.8059-1.9215z"/><path d="m463.77 539.0761-1.8292 1.0069q.5063.92 1.0235 1.8346l1.8175-1.0283q-.5118-.9036-1.0118-1.8132z"/><path d="m494.9825 589.1054a8.9015 8.9015 0 0 0 -1.091-1.9475l-1.6819 1.2379a6.8153 6.8153 0 0 1 .8369 1.4917l.0362.0912 1.9465-.756z"/><path d="m490.22 584.2341-.7861 1.9348a6.0453 6.0453 0 0 1 1.522.9115l1.3143-1.6227a8.1348 8.1348 0 0 0 -2.0502-1.2236z"/><path d="m495.8872 593.6392a15.7 15.7 0 0 0 -.2412-2.2207l-2.0535.3793a13.5962 13.5962 0 0 1 .208 1.9273z"/><path d="m495.3741 598.4343-.337 2.0607a2.8029 2.8029 0 0 0 .4522.0364 3.2321 3.2321 0 0 0 2.3752-1.0759l-1.56-1.3888a1.1034 1.1034 0 0 1 -.9304.3676z"/><path d="m495.8668 595.8238-2.0852-.1086c-.0313.6008-.0836 1.2452-.1644 2.0281l2.077.2146c.0846-.819.1395-1.4971.1726-2.1341z"/><path d="m487.8267 580.77a6.97 6.97 0 0 1 -.67 1.6824l1.818 1.0273a9.0541 9.0541 0 0 0 .873-2.1856z"/><path d="m472.5465 553.134-1.6951 1.22q.6159.8562 1.2477 1.7l1.6712-1.2521q-.6203-.8282-1.2238-1.6679z"/><path d="m475.0268 556.4422-1.6452 1.2863q.65.8313 1.3179 1.6485l1.6166-1.3215q-.6535-.7995-1.2893-1.6133z"/><path d="m467.9513 546.2444-1.7742 1.1012q.5551.8948 1.1236 1.78l1.7569-1.1287q-.5595-.8713-1.1063-1.7525z"/><path d="m486.1742 583.9494-.1018-.1091q-.1827.1705-.3838.327l-4.5387 3.5219 5.4877-1.7a4.3722 4.3722 0 0 1 1.1412-.1675l.0347-2.0877h-.0627a5.8491 5.8491 0 0 0 -1.5766.2154z"/><path d="m470.1914 549.73-1.738 1.1578q.5842.8771 1.1831 1.743l1.7175-1.1876q-.5887-.8511-1.1626-1.7132z"/><path d="m477.64 559.64-1.587 1.3571q.686.8022 1.3913 1.5889l1.5546-1.3939q-.6889-.7684-1.3589-1.5521z"/><path d="m481.2218 563.5781q-.4176-.4308-.8285-.8677l-1.5207 1.4311q.4214.4473.8491.8894.3066.3165.6168.6314l1.4877-1.4658q-.304-.3081-.6044-.6184z"/><path d="m439.9521 485.8849-1.96.7214q.3617.9822.7288 1.9627l1.9556-.7326q-.3652-.975-.7244-1.9515z"/><path d="m432.2363 462.15-2.0112.5624q.2822 1.0086.5715 2.0153l2.0071-.5771q-.2875-.9988-.5674-2.0006z"/><path d="m433.3852 466.1473-2.0026.5914q.2967 1.0044.6011 2.0069l1.998-.6067q-.3017-.9945-.5965-1.9916z"/><path d="m434.5927 470.1274-1.9939.62q.31 1 .6288 1.998l1.99-.6343q-.316-.9911-.6249-1.9837z"/><path d="m430.1216 454.1082-2.0276.4992q.25 1.017.5088 2.0326l2.0235-.5149q-.2563-1.0075-.5047-2.0169z"/><path d="m431.1471 458.1373-2.0194.5313q.2661 1.0128.5407 2.0239l2.0153-.5465q-.2719-1.0033-.5366-2.0087z"/><path d="m429.1619 450.0639-2.0357.4654q.2333 1.0209.4751 2.0411l2.0319-.4818q-.2397-1.0117-.4713-2.0247z"/><path d="m435.8555 474.091-1.9852.6475q.3242.9952.6556 1.9888l1.9811-.66q-.3288-.9873-.6515-1.9763z"/><path d="m437.1713 478.0383-1.9765.6734q.3376.9907.6811 1.98l1.9725-.6852q-.3415-.9834-.6771-1.9682z"/><path d="m438.5379 481.97-1.9684.6975q.35.9868.7058 1.9717l1.9638-.71q-.3535-.9782-.7012-1.9592z"/><path d="m415.1653 321.498c.636.1879 1.2738.4053 1.895.646l.7541-1.9475c-.6745-.2611-1.3666-.4971-2.0577-.701z"/><path d="m418.9 322.9408c.5962.2865 1.1935.6023 1.7754.9383l1.0447-1.8081c-.6274-.3624-1.2718-.703-1.9152-1.0124z"/><path d="m433.49 338.19q.1579.3322.31.6674l1.9021-.8611q-.1594-.3525-.3258-.7023-.294-.6191-.6118-1.2281l-1.8516.9651q.2991.5746.5771 1.159z"/><path d="m435.2927 342.6462 1.9775-.6709c-.2307-.68-.4779-1.3551-.7349-2.0079l-1.9429.7652c.2447.6218.4805 1.2654.7003 1.9136z"/><path d="m436.427 346.5675 2.0291-.493c-.1693-.6969-.3533-1.39-.5471-2.0612l-2.0061.5792c.1853.6423.3617 1.3069.5241 1.975z"/><path d="m432.5664 332.3765-1.73 1.1695c.3765.5572.7426 1.1333 1.0874 1.7122l1.7941-1.0686c-.3651-.6133-.7526-1.2233-1.1515-1.8131z"/><path d="m439.9937 365.0407-2.0857-.1025q-.05 1.0283-.1279 2.0564l2.082.1575q.08-1.0552.1316-2.1114z"/><path d="m437.231 350.58 2.0617-.3308c-.1127-.7033-.24-1.4079-.377-2.0941l-2.0475.4094c.1318.6602.2542 1.3382.3628 2.0155z"/><path d="m426.9457 325.8868-1.3974 1.5519c.4942.445.9849.9158 1.4583 1.4l1.4927-1.46c-.5039-.5156-1.0267-1.0175-1.5536-1.4919z"/><path d="m429.9554 328.9635-1.58 1.3653c.4369.5055.8666 1.0344 1.2781 1.572l1.6584-1.2689c-.4368-.5702-.8931-1.1319-1.3565-1.6684z"/><path d="m422.3787 324.949c.5489.3726 1.0956.7731 1.6256 1.19l1.2908-1.6416c-.5679-.4466-1.1542-.8756-1.7428-1.2756z"/><path d="m439.6707 369.263-2.0765-.2192q-.1081 1.0221-.2477 2.04l2.0688.2844q.1447-1.0495.2554-2.1052z"/><path d="m439.0893 373.4682-2.0577-.3568c-.1175.6772-.2475 1.3545-.3869 2.0125l2.0428.4328c.1448-.6832.2799-1.3859.4018-2.0885z"/><path d="m437.7367 354.6514 2.08-.1871c-.0638-.7079-.1395-1.4181-.2251-2.1109l-2.0724.2564q.1253 1.0184.2175 2.0416z"/><path d="m440.0959 360.92v-.105h-2.0882v.105q0 .98-.0242 1.9577l2.0877.051q.0245-1.0037.0247-2.0087z"/><path d="m438.204 377.6322-2.0235-.515c-.17.6664-.3533 1.3286-.5458 1.9687l2 .6016c.2007-.6686.3924-1.36.5693-2.0553z"/><path d="m437.9771 358.757 2.0872-.06q-.0306-1.06-.0918-2.1173l-2.0846.1219q.06 1.0269.0892 2.0554z"/><path d="m436.9722 381.7183-1.97-.6928c-.2256.6413-.4688 1.2819-.7224 1.9037l1.9332.7891c.267-.6533.5222-1.3262.7592-2z"/><path d="m432.8272 386.8252 1.9546.7351.11-.2908a5.8057 5.8057 0 0 0 .5313-1.8032 1.0936 1.0936 0 0 0 -1.0867-1.1229v.8588l-.8741-.4084-.7848 1.6378h.2987l-.0367.0966z"/><path d="m288.7818 59.32.7423-.2118-.5654-2.01-.7551.2154q-.6332.182-1.2656.37l.596 2.0015q.6232-.186 1.2478-.3651z"/><path d="m247.1917 89.8589-1.608-1.3321q-.6615.7983-1.3332 1.5858l1.5871 1.3571q.6833-.7997 1.3541-1.6108z"/><path d="m241.3974 96.11-1.3562-1.588a15.7026 15.7026 0 0 1 -1.56 1.1825l1.15 1.743a17.7408 17.7408 0 0 0 1.7662-1.3375z"/><path d="m301.6182 56.3938-.3176-2.0637q-1.0446.16-2.0865.3487l.3707 2.055q1.0152-.1831 2.0334-.34z"/><path d="m244.4489 93.06-1.5565-1.3923c-.508.568-.9631 1.0546-1.391 1.4874l1.4851 1.4683c.4527-.4575.9309-.9689 1.4624-1.5634z"/><path d="m260.6261 74.034-1.457-1.4958c-.4928.48-.9957.9865-1.4953 1.506l1.5055 1.4473q.7119-.7406 1.4468-1.4575z"/><path d="m252.4357 83.3351-1.6294-1.3062q-.6543.8163-1.3052 1.6353l1.634 1.3q.6492-.8155 1.3006-1.6291z"/><path d="m249.8328 86.6-1.6314-1.3036q-.65.8136-1.3036 1.6232l1.6232 1.3133q.659-.8139 1.3118-1.6329z"/><path d="m255.0622 80.1168-1.6008-1.3408q-.6746.8054-1.3383 1.6218l1.6192 1.3189q.6554-.8049 1.3199-1.5999z"/><path d="m257.7737 76.9968-1.5453-1.4046q-.71.7807-1.402 1.58l1.5774 1.3684q.6768-.7801 1.3699-1.5438z"/><path d="m285.5516 60.2908-.6266-1.9918q-1.0044.3158-2.0046.65l.6628 1.98q.9815-.3281 1.9684-.6382z"/><path d="m270.3909 66.6694-1.038-1.8119c-.6207.3554-1.235.7232-1.8264 1.0933l1.1078 1.77c.5682-.3555 1.1593-.7093 1.7566-1.0514z"/><path d="m281.63 61.6044-.703-1.9664q-.9942.3552-1.98.7329l.7474 1.95q.9627-.3693 1.9356-.7165z"/><path d="m297.5585 57.1251-.4191-2.0459q-1.0338.212-2.0632.4471l.464 2.0363q1.0071-.2298 2.0183-.4375z"/><path d="m305.7 55.8888-.1927-2.079q-1.055.0975-2.1084.2286l.2575 2.0724q1.0217-.1269 2.0436-.222z"/><path d="m274.021 64.76-.9085-1.88c-.6418.31-1.28.6317-1.8957.9554l.9712 1.8486c.5955-.3131 1.212-.624 1.833-.924z"/><path d="m263.6646 71.296-1.3316-1.6085c-.5371.4448-1.08.9141-1.6126 1.3949l1.399 1.55c.5111-.4608 1.0306-.9105 1.5452-1.3364z"/><path d="m266.9241 68.8407-1.1812-1.7221c-.5909.4053-1.1741.8243-1.7331 1.2452l1.2556 1.6681c.5346-.4019 1.0928-.8032 1.6587-1.1912z"/><path d="m277.7779 63.0826-.7974-1.93q-.9788.4046-1.9452.8349l.85 1.9072q.9399-.4193 1.8926-.8121z"/><path d="m293.5284 58.042-.5032-2.0265q-1.0224.2535-2.0395.5251l.5379 2.0179q.9995-.2665 2.0048-.5165z"/><path d="m350.9425 59.3385.3117-.1262.1795-.2847c.0418-.066.0848-.1318.13-.1968l-1.2-.8213-.2052-.5063c-.5259.2129-1.07.4038-1.6167.567l.5975 2.001c.6097-.182 1.2164-.3949 1.8032-.6327z"/><path d="m347.0049 60.4874-.386-2.052c-.6367.12-1.299.211-1.9684.2714l.1877 2.08c.7356-.0668 1.4647-.1668 2.1667-.2994z"/><path d="m334.5873 57.8552q-1.0056-.21-2.0143-.4487l-.4777 2.0327q1.034.2432 2.0653.46z"/><path d="m338.6222 58.5432c-.6416-.08-1.3207-.1815-2.0186-.3018l-.3548 2.0586c.73.1257 1.4415.232 2.1149.3161z"/><path d="m342.664 60.8883-.01-2.0882-.1493.0005c-.6021 0-1.2289-.0211-1.8637-.0629l-.1371 2.0836c.68.0449 1.3531.0676 2.0008.0676z"/><path d="m353.894 52.8093 1.7446 1.1476a8.0213 8.0213 0 0 0 1.0235-2.1558l-2.0031-.59a5.9715 5.9715 0 0 1 -.765 1.5982z"/><path d="m354.8459 49.5074 2.0841-.1284a8.9117 8.9117 0 0 0 -.4744-2.309l-1.9771.672a6.8353 6.8353 0 0 1 .3674 1.7654z"/><path d="m355.5354 45.0035a20.0844 20.0844 0 0 0 -1.1634-1.8688l-1.7135 1.1935a18.0432 18.0432 0 0 1 1.0426 1.673z"/><path d="m353.3355 56.6836c.3029-.3166.6088-.637.9067-.9658l-1.5467-1.4025c-.2858.315-.5792.622-.8695.9253-.1864.195-.3714.3887-.5524.5822l1.5243 1.427c.1762-.1881.3564-.3765.5376-.5662z"/><path d="m309.7954 55.6525-.0454-2.0877c-.7.0151-1.4152.0439-2.1244.0852l.1213 2.0846c.6842-.0398 1.3731-.0675 2.0485-.0821z"/><path d="m318.2561 54.0869c-.6947-.105-1.4076-.196-2.1191-.27l-.2167 2.077c.68.0708 1.3605.1578 2.0238.2579z"/><path d="m314.01 53.6428c-.7-.0415-1.4162-.0691-2.13-.0818l-.0377 2.0877c.6847.0125 1.3722.0387 2.0434.0788z"/><path d="m236.6206 98.939c.3454-.1162.6929-.2516 1.0329-.4025l-.8473-1.9087c-.2809.1249-.5674.2365-.8509.3319-.3059.1027-.6217.1919-.9383.2651l.47 2.0346c.3822-.0882.7635-.196 1.1336-.3204z"/><path d="m233.2428 99.5712-.1131-2.0851a14.2135 14.2135 0 0 1 -1.945-.0334l-.1687 2.0815c.482.039.9561.0589 1.4086.0589q.4098 0 .8182-.0219z"/><path d="m229.2107 97.1937c-.6-.1053-1.2506-.24-1.9893-.4117l-.4726 2.0342c.7762.18 1.4634.3222 2.1009.4341z"/><path d="m326.5171 55.8766q-1.0182-.2609-2.0364-.5116l-.4966 2.0285q1.0071.2463 2.0145.506z"/><path d="m322.4274 54.883q-1.0381-.2322-2.0734-.4331l-.3952 2.05q1.0053.1935 2.0133.42z"/><path d="m224.6993 98.3112.5149-2.0235-.367-.0938c-.5552-.1415-1.1114-.2834-1.6679-.4193l-.4955 2.0286c.55.1343 1.0989.2745 1.6472.4142z"/><path d="m330.5587 56.9148q-1.0083-.2535-2.0176-.5159l-.5221 2.0219q1.0156.2623 2.0309.519z"/><path d="m235.9166 124.0205-2.08.182c.0676.7752.1463 1.4723.24 2.1313l2.0673-.2947c-.0884-.621-.1628-1.2814-.2273-2.0186z"/><path d="m236.4975 128.0253-2.0428.4329c.1437.6791.3143 1.3811.5065 2.0869l2.0148-.5485c-.1818-.6679-.3429-1.3309-.4785-1.9713z"/><path d="m235.7017 120.7018-.0444-.8167-2.0851.1162.0443.8127q.034.6378.0706 1.2756l2.0847-.1224q-.0371-.6324-.0701-1.2654z"/><path d="m235.305 115.649-2.0713.2662c.0792.6174.1463 1.28.2049 2.0257l2.0816-.1631c-.0612-.7806-.1315-1.4767-.2152-2.1288z"/><path d="m231.5 110.4624 1.739-1.1557c-.3638-.5476-.7987-1.139-1.2922-1.7579l-1.6324 1.3021c.4563.5717.855 1.1139 1.1856 1.6115z"/><path d="m227.6045 105.8037c.4894.5029.9592 1.0061 1.3959 1.4956l1.558-1.39c-.4565-.5119-.947-1.0372-1.4576-1.5618z"/><path d="m232.5622 112.5167c.128.452.244.9289.3449 1.4171l2.0449-.4222c-.1109-.5373-.2389-1.0634-.3808-1.5649a5.95 5.95 0 0 0 -.2231-.6349l-1.93.7968a3.8117 3.8117 0 0 1 .1441.4081z"/><path d="m235.57 132.5918c.2075.6457.4326 1.3033.6878 2.0107l1.9643-.7092c-.247-.6836-.4642-1.3186-.6643-1.9408z"/><path d="m226.1454 104.36 1.4405-1.5116c-.5134-.4894-1.041-.9742-1.5677-1.4407l-1.3846 1.5631c.5077.4503 1.0164.9178 1.5118 1.3892z"/><path d="m240.5011 139.6808-1.9327.7907q.3962.9681.7948 1.935l1.93-.7973q-.3983-.9636-.7921-1.9284z"/><path d="m237.7784 138.535 1.9353-.7841q-.3889-.9606-.7663-1.9266l-1.9465.756q.3809.9804.7775 1.9547z"/><path d="m219.8051 99.2054 1.1542-1.74c-.0884-.0586-.1723-.1089-.26-.1656l.4-1.9935c-.77-.1545-1.4685-.27-2.1361-.3533l-.258 2.0724.0123.0018-.6251 1.1336c.5365.2947 1.1124.6464 1.7127 1.0446z"/><path d="m224.3962 100.0252c-.5656-.4634-1.1312-.9072-1.6816-1.3189l-1.2511 1.6717c.5259.3936 1.0673.8182 1.6093 1.2623z"/><path d="m250.948 171.136c0 .5462-.0183 1.107-.0545 1.6663l2.0836.1351c.0392-.6041.0591-1.21.0591-1.8014l-.0023-.3658-2.0882.027z"/><path d="m245.7244 151.3173-.1529-.2913-1.85.9681.156.2975q.4144.7839.8475 1.5621l1.827-1.0115q-.422-.7612-.8276-1.5249z"/><path d="m243.7609 147.3222-1.8971.8723q.4413.9592.9032 1.909l1.8771-.9151q-.4527-.9284-.8832-1.8662z"/><path d="m247.5684 154.6572-1.82 1.0247c.34.6036.68 1.208 1.0135 1.8144l1.8292-1.0069c-.3365-.6125-.6793-1.2225-1.0227-1.8322z"/><path d="m242.0943 143.5279-1.9231.8136q.41.9678.8305 1.9307l1.9124-.8386q-.4164-.9495-.8198-1.9057z"/><path d="m250.833 168.803 2.0781-.208c-.0729-.7275-.18-1.4547-.3182-2.1613l-2.0494.4007c.1256.6431.2233 1.3056.2895 1.9686z"/><path d="m250.0688 164.9027 2.0026-.5919c-.1978-.6689-.4341-1.36-.7023-2.0548l-1.948.752c.248.642.466 1.2799.6477 1.8947z"/><path d="m249.59 158.3561-1.8562.957c.3375.6546.6309 1.2541.8972 1.8333l1.8971-.8723c-.2793-.6077-.5862-1.2351-.9381-1.918z"/><path d="m250.36 176.8033 2.049.4033c.1407-.7155.26-1.4293.3525-2.1208l-2.0693-.2789c-.0873.6503-.1989 1.322-.3322 1.9964z"/><path d="m300.5748 593.19c3.5389-3.7734 7.2068-7.584 9.786-12.1071a21.5959 21.5959 0 0 0 2.8075-14.6786c-.9158-4.6786-3.4048-8.8543-6.2118-12.6387-2.9947-4.0377-6.3093-7.8338-9.401-11.7969-6.8275-8.7515-13.6738-17.5038-19.8391-26.7419-4.2771-6.4094-8.4881-13.3488-15.0062-17.74a22.8374 22.8374 0 0 0 -2.0446-1.2147c-.029-.017-.0512-.0377-.0821-.0537-.05-.026-.1014-.0472-.1511-.0727-.3831-.1981-.7719-.3829-1.1644-.559-.0584-.0263-.1155-.0553-.1741-.0811a25.0776 25.0776 0 0 0 -6.02-1.77c-.0946-.0156-.19-.0268-.2842-.0413-.3128-.0482-.6245-.1-.9394-.1369-.12-.014-.24-.0227-.36-.0349-.0517-.0054-.1035-.01-.1555-.0151q-.544-.0516-1.0877-.08c-.675-.04-1.3518-.065-2.0316-.0574-2.5733.0286-5.1527.2325-7.7227.362l-2.7892.1392-2.5351.1261q-17.4946.8711-34.99 1.726-2.0465.1-4.0928.1986-15.4283.7533-30.8572 1.4978-.5425.0264-1.0851.0523c-4.9988.2391-10.0187.3722-15.0128.726a34.721 34.721 0 0 0 -10.1816 1.77 18.4126 18.4126 0 0 0 -2.8348 1.3423 17.47 17.47 0 0 0 -2.6016 1.7643 22.3225 22.3225 0 0 0 -5.1968 6.4757 54.0727 54.0727 0 0 0 -4.503 11.1764c-.02.0676-.0418.1346-.0619.2022l-.0166.0537q-.2742.9185-.5279 1.8412c-.0337.1229-.065.2465-.0984.37q-.2115.7785-.4117 1.5595c-.0446.1759-.0872.3523-.131.5282q-.1767.7084-.3454 1.4185c-.0441.1871-.0869.3745-.13.5618q-.1621.7-.3169 1.4015-.0612.2788-.1211.5575-.1548.7165-.3028 1.4344c-.0186.09-.0385.18-.0568.27-.0095.0456-.0176.0917-.0268.1376q-.3981 1.9532-.76 3.9142l-.0056.03c-.335 1.8078-.6546 3.6192-.9733 5.4308q-.2 1.1371-.4015 2.2745-.0581.3277-.117.6549-.3219 1.8016-.66 3.6-.0442.2345-.0889.4693c-1.0587 5.5277-2.4245 10.9848-3.7994 16.4408-2.7877 11.0623-5.9542 22.0973-8.1477 33.298-.3428 1.7507-.6148 3.5253-.8085 5.3112-.0069.062-.0115.1242-.0181.1861-.0515.4869-.0989.9745-.1379 1.4629-.03.37-.0523.7413-.0752 1.1122-.011.1853-.024.37-.0332.5557-.0227.4463-.0372.8932-.0484 1.34-.0033.1294-.0069.2589-.0092.3887q-.0111.6541-.0041 1.3087c.0016.1881.0051.376.0087.5641.0048.221.0026.4415.01.6625.0051.1379.017.2756.0232.4135.0142.34.0349.68.0565 1.0191.013.194.0237.3877.039.5814a42.6209 42.6209 0 0 0 .8634 5.9221c.1988.9352.4283 1.87.7155 2.78q.0375.1242.076.248l.0046.0148.0031.0087c.32 1.0375.6821 2.0642 1.0971 3.0755a35.8205 35.8205 0 0 0 7.7089 11.6625c3.3439 3.37 6.8331 6.607 10.3322 9.815q10.65 9.7644 21.8148 18.9512c5.8288 4.8124 11.7281 9.5718 17.8688 13.9835 7.0332 5.0525 15.1707 9.3013 24.08 7.7428 9.5437-1.67 17.1726-8.9722 24.3817-14.8808 17.1507-14.0566 34.1682-28.291 50.5759-43.2146q12.3717-11.2526 24.2076-23.0766 5.8528-5.8766 11.5303-11.9235zm-59.7309 5.8775q-.2026.608-.4149 1.2143a1.9517 1.9517 0 0 0 -.1436.307c-.2934.8134-.5926 1.625-.8893 2.4374a34.46 34.46 0 0 1 -3.0266 5.9149 16.3175 16.3175 0 0 1 -7.3235 6.3548c-3.4 1.4-7.1354 1.6931-10.7673 1.8853-8.7411.4627-17.487.8443-26.23 1.2687q-13.2259.6417-26.4516 1.29l-2.5628.1254a287.2314 287.2314 0 0 0 -24.5533-27.2336c-.2266-.2213-.4484-.4474-.676-.6679-.7732-.7492-1.5593-1.4851-2.3411-2.2256-.5409-.5124-1.0752-1.0319-1.62-1.54l-.0038-.0036-.0049-.0046q-3.9654-3.697-8.0783-7.231c1.4405-1.5725 2.8833-3.1428 4.3437-4.6967.8274-.88 1.67-1.7464 2.5034-2.62 1.025-1.0747 2.0434-2.1558 3.0778-3.2213.7685-.7912 1.5506-1.5687 2.3242-2.3549 1.1158-1.1335 2.2259-2.273 3.3529-3.3958.7892-.7864 1.5921-1.5593 2.3867-2.34 1.1241-1.1052 2.2429-2.2161 3.3778-3.3107.98-.9452 1.9755-1.8751 2.9638-2.8124.96-.91 1.9123-1.8285 2.8794-2.7311 1.02-.9521 2.0551-1.8886 3.0834-2.832.9516-.8731 1.8957-1.7543 2.8542-2.62 1.0051-.908 2.0245-1.8 3.0372-2.6995.9967-.8855 1.9863-1.7787 2.99-2.6561.9893-.8647 1.9921-1.7132 2.9883-2.57 1.041-.8955 2.0755-1.7986 3.1242-2.6855 1.1366-.9612 2.2875-1.9054 3.4328-2.8565.9172-.7614 1.8269-1.5317 2.75-2.2865 1.2-.9814 2.4144-1.9454 3.6235-2.9156.8812-.7069 1.7548-1.4232 2.6406-2.1239 1.3357-1.0566 2.6862-2.0941 4.0326-3.1364.7729-.5983 1.5381-1.2062 2.3146-1.8q2.85-2.1787 5.7359-4.31c.2315-.1718.46-.3482.6916-.5195.1682-.1244.3393-.2447.5075-.3686q3.0074-2.2146 6.0454-4.3872c.127-.09.2537-.1825.38-.274.8947-.6437 1.7879-1.2934 2.7048-1.9037.0561-.0372.1111-.0759.1675-.1126.1649-.1068.3438-.2269.5312-.3286.0617-.0326.1246-.06.1879-.0872.0382-.0168.0754-.0364.1142-.0507a1.4585 1.4585 0 0 1 .3354-.0821 2.3489 2.3489 0 0 1 1.4382.54c1.142.7461 2.1917 1.6572 3.269 2.4922q1.7558 1.3609 3.51 2.723l.0061.0048q3.4761 2.6984 6.9486 5.401 4.0527 3.1541 8.0977 6.3174 2.9341 2.29 5.8692 4.5789 4.65 3.6359 9.2924 7.2812 2.3133 1.8143 4.6282 3.6266 1.4 1.0992 2.8 2.1993-.7582 2.9679-1.5124 5.9373-.0486.19-.0969.38l-.0005.0035q-.2076.8182-.4152 1.636l-.0018.0051c-.015.0589-.03.1178-.0444.1767q-.3031 1.2018-.6015 2.405-.114.4559-.2282.9113l-.0007.0056c-.129.5173-.26 1.034-.3872 1.5514l-.0021.0051-.0232.0961q-.6041 2.4464-1.19 4.8968c-1.8947 7.9814-2.9807 16.1219-4.646 24.1495a104.9968 104.9968 0 0 1 -3.1048 11.8741zm32.64 16.8341c-15.7284 14.8907-32.15 29.0285-48.8045 42.8692q-6.2234 5.1719-12.4847 10.2981a140.3391 140.3391 0 0 1 -12.2654 9.5343 29.1463 29.1463 0 0 1 -11.1382 4.7049 21.2266 21.2266 0 0 1 -10.982-1.4431 49.9223 49.9223 0 0 1 -11.0533-6.48c-2.6768-1.9436-5.3-3.9612-7.8983-6.0076-6.8887-5.425-13.6218-11.05-20.2372-16.8044-7.1181-6.1922-14.2621-12.4752-20.8541-19.2325a31.9658 31.9658 0 0 1 -6.4038-9.5772 31.1346 31.1346 0 0 0 11.3954 1.2251q15.9171-.7968 31.8345-1.5769 3.8658-.19 7.7314-.38c.0609-.0031.1175-.0123.1749-.02.4035.0176.8284-.029 1.2656-.05l4.845-.2374q4.91-.24 9.8211-.48 19.4806-.95 38.962-1.8861c5.5027-.2686 11.4286-.687 16.1-3.9342.4119-.2865.8032-.5924 1.1851-.9072q-3.7651 9.6454-7.8581 19.1578-2.06 4.7788-4.2014 9.5219a1.614 1.614 0 0 0 .5618 2.1428 1.5785 1.5785 0 0 0 2.1428-.5619q7.6789-17.0172 14.3249-34.4772 1.4117-3.7135 2.77-7.4474c.04-.0989.0811-.1978.12-.2967 4.4654-11.2948 5.6831-23.472 8.1076-35.2849q.4522-2.2044.97-4.3944.585-2.4537 1.1914-4.9016c.207-.8382.4178-1.6753.6271-2.5124q.3067-1.23.6156-2.46.2737-1.0852.5506-2.17.8138-3.2049 1.633-6.4089.0719-.2814.1435-.5626c1.5972-6.2592 3.1817-12.5226 4.6271-18.8191 1.4086-6.1359 2.4787-12.3039 2.115-18.6264a44.817 44.817 0 0 0 -.7974-6.2565 36.3561 36.3561 0 0 1 6.7484 7.0131c2.359 3.1351 4.4678 6.4486 6.6567 9.702 2.95 4.385 6.0674 8.6562 9.2473 12.8765 3.4038 4.5175 6.8882 8.9738 10.3672 13.4331 2.961 3.7956 6.1506 7.4245 9.01 11.2968 2.6194 3.5478 4.94 7.3773 5.7971 11.7566 1.8856 10.5762-7.1851 18.8946-13.7525 25.8218q-11.131 11.741-22.9114 22.8429z"/><path d="m390.6717 745.8825c-11.37-3.3469-23.2928-1.7359-34.9319-2.8183a56.5763 56.5763 0 0 1 -7.9386-1.2952q13.4167-22.9926 26.8335-45.9854 3.9158-6.71 7.8313-13.4207c.0066-.01.0114-.02.0175-.03l.01-.0171c.0062-.0109.0087-.0214.0146-.0323a1.436 1.436 0 0 0 .1208-.2636 1.49 1.49 0 0 0 .0579-.233l.004-.0186a1.6344 1.6344 0 0 0 -2.1731-1.6885c-.039.0158-.0757.04-.1136.0594-.0362.02-.0727.0359-.1084.06a1.4539 1.4539 0 0 0 -.3168.273 198.4665 198.4665 0 0 1 -17.6458 15.7136c-6.632 5.2985-13.5086 10.2868-20.4875 15.1168-7.2843 5.0414-14.6909 9.9032-22.1431 14.6919-7.31 4.6975-14.6667 9.3215-22.0058 13.9734-6.7775 4.2959-13.5445 8.611-20.2134 13.0745q-1.1786.7887-2.3526 1.5845a1.58 1.58 0 0 0 .7905 2.9184q18.2826.9307 36.5651 1.8616l7.4073.377-17.95 25.3935q-9.7982 13.8614-19.5964 27.7226-5.4952 7.7742-10.9909 15.5486c-.9628 1.362.8639 2.8162 2.1431 2.1428q12.4115-6.537 24.4992-13.6644 12.0814-7.1276 23.81-14.8329 11.7235-7.7019 23.0671-15.9636 11.4465-8.337 22.484-17.2188 10.929-8.7936 21.4243-18.1087 1.2927-1.1475 2.5784-2.3028a1.58 1.58 0 0 0 -.6907-2.6177z"/><path d="m199.19 544.2268c1.4637-1.3918-.7535-3.6044-2.2149-2.2149q-14.91 14.1765-30.6691 27.4217-4.4181 3.7121-8.9 7.3473a1.5765 1.5765 0 0 0 0 2.2149 1.6029 1.6029 0 0 0 2.2149 0q15.9766-12.9629 31.1385-26.8875 4.2498-3.9043 8.4306-7.8815z"/><path d="m213.2848 552.8284a1.6122 1.6122 0 0 0 0-2.2149 1.578 1.578 0 0 0 -2.2149 0 296.73 296.73 0 0 1 -27.1243 28.9691q-4.1345 3.8607-8.4143 7.5608a1.5806 1.5806 0 0 0 0 2.2149 1.5977 1.5977 0 0 0 2.2149 0 296.7294 296.7294 0 0 0 28.212-27.9107q3.7457-4.2393 7.3266-8.6192z"/><path d="m214.3679 572.4512q-.0259 7.1457-.4933 14.2795-.1188 1.7987-.2663 3.595a10.8594 10.8594 0 0 1 -.1344 1.2455c-.0265.1249-.09.378-.1081.4285a.4621.4621 0 0 1 -.1427.2324c-.1644.1219-.3508.0954-.662.0757a8.6022 8.6022 0 0 1 -1.3337-.27q-1.6219-.3957-3.2139-.9037a46.0829 46.0829 0 0 1 -6.7887-2.7833 1.604 1.604 0 0 0 -2.1427.5618 1.5815 1.5815 0 0 0 .5618 2.1428 51.614 51.614 0 0 0 6.97 2.9146q1.7544.5835 3.5494 1.0311a7.9786 7.9786 0 0 0 3.5825.3457c2.8057-.606 2.8868-3.6149 3.0668-5.9195q.3108-3.9789.4812-7.9672.1932-4.502.2065-9.009a1.5671 1.5671 0 0 0 -3.1324.0001z"/><path d="m131.111 248.1855a22.9928 22.9928 0 0 0 4.5733 7.1976c.0377.0369.0775.0715.1157.1078a23.4154 23.4154 0 0 0 -1.7091 6.3584 19.597 19.597 0 0 0 4.0777 14.3181 14.8763 14.8763 0 0 0 5.9789 4.4734 12.738 12.738 0 0 0 6.4191.74 35.1756 35.1756 0 0 0 1.0161 7.7668 34.1389 34.1389 0 0 0 2.8463 7.5761 1.5664 1.5664 0 0 0 2.7046-1.5809 30.44 30.44 0 0 1 -3.29-11.5966c-.0721-.9668-.1086-1.9459-.0958-2.9241a13.1105 13.1105 0 0 0 7.8058-7.3663 10.2228 10.2228 0 0 0 .6378-3.3171 1.6049 1.6049 0 0 0 -1.15-1.51 6.7522 6.7522 0 0 0 -6.0587.984 9.8094 9.8094 0 0 0 -3.689 5.63 21.2694 21.2694 0 0 0 -.5805 3.1841 10.273 10.273 0 0 1 -3.3212.0761c.0077-.0036-.4139-.0749-.4983-.0923q-.3525-.0729-.7-.1693a9.3074 9.3074 0 0 1 -1.2463-.4439 12.4456 12.4456 0 0 1 -2.559-1.585 15.5573 15.5573 0 0 1 -5.2527-10.9336 17.2417 17.2417 0 0 1 .8884-6.67c.1167-.3637.2475-.7221.3844-1.078a9.377 9.377 0 0 0 5.01 1.0043 14.1993 14.1993 0 0 0 7.543-3.2391 17.0391 17.0391 0 0 0 5.06-6.1751c.977-2.2063 1.5809-5.135.0341-7.2422a4.84 4.84 0 0 0 -3.77-1.9754 7.8085 7.8085 0 0 0 -4.2582 1.3652 32.2342 32.2342 0 0 0 -6.5425 5.7173 32.8869 32.8869 0 0 0 -4.21 5.736 20.51 20.51 0 0 1 -2.7785-4.4677 42.1594 42.1594 0 0 1 -2.7354-7.193 45.4317 45.4317 0 0 1 2.0155-30.3406q.7782-1.7589 1.7084-3.4435c.9717-1.7676-1.7323-3.35-2.7046-1.5809a48.58 48.58 0 0 0 -4.5218 34.3383 47.0818 47.0818 0 0 0 2.8525 8.3511zm24.6874 24.6533a4.4538 4.4538 0 0 1 3.091-1.59 8.2723 8.2723 0 0 1 -.3926 1.2613c-.0239.0443-.15.32-.18.38q-.1563.308-.3352.6037t-.378.58c-.0441.0626-.09.1245-.1351.1862-.0217.0239-.1634.2024-.1871.2305a10.5891 10.5891 0 0 1 -1.9526 1.7972 12.78 12.78 0 0 1 -1.2261.7481l-.0571.03a8.3919 8.3919 0 0 1 1.7528-4.227zm-9.5308-26.3983a27.995 27.995 0 0 1 2.805-2.3129 5.9281 5.9281 0 0 1 3.1163-1.292 1.972 1.972 0 0 1 1.0351.3426c-.09-.0714.2718.3172.2555.2643.04.059.0795.1188.1142.1791.0145.0256.1019.2348.1134.2485a3.8383 3.8383 0 0 1 -.0161 2.29 11.7322 11.7322 0 0 1 -3.2921 5.2526 13.1332 13.1332 0 0 1 -5.7571 3.557 6.8036 6.8036 0 0 1 -4.9121-.463 28.0927 28.0927 0 0 1 1.63-2.6071 33.4569 33.4569 0 0 1 4.9079-5.4591z"/><path d="m424.9329 92.2226 8.074.8484a65.1394 65.1394 0 0 1 -2.7115 10.7068 1.5665 1.5665 0 0 0 3.02.8327 67.21 67.21 0 0 0 2.8211-11.21l12.0513 1.2664a1.5763 1.5763 0 0 0 1.5666-1.5669 1.6018 1.6018 0 0 0 -1.5662-1.5662l-11.6241-1.2215a67.2407 67.2407 0 0 0 .2822-12.4792 1.604 1.604 0 0 0 -1.5661-1.5662 1.5794 1.5794 0 0 0 -1.5662 1.5662 65.1594 65.1594 0 0 1 -.2743 12.1509q-4.2534-.447-8.5068-.8941a1.5764 1.5764 0 0 0 -1.5661 1.5661 1.6018 1.6018 0 0 0 1.5661 1.5666z"/><path d="m160.95 383.9754a1.6513 1.6513 0 0 0 -.72-.936 1.1645 1.1645 0 0 0 -.5824-.1858 1.1852 1.1852 0 0 0 -.6245.0279 1.5673 1.5673 0 0 0 -1.0939 1.9266q.2984.92.5965 1.8409a1.6522 1.6522 0 0 0 .72.9359 1.1666 1.1666 0 0 0 .5822.186 1.1871 1.1871 0 0 0 .6245-.0281 1.5667 1.5667 0 0 0 1.0938-1.9266q-.2979-.9203-.5962-1.8408z"/><path d="m179.5313 366.4084a1.5671 1.5671 0 0 0 0-3.1323 1.5671 1.5671 0 0 0 0 3.1323z"/><path d="m183.2033 402.5145a1.5671 1.5671 0 0 0 0-3.1323 1.5671 1.5671 0 0 0 0 3.1323z"/><path d="m320.5964 532.488a1.6146 1.6146 0 0 0 0 2.2149 1.5774 1.5774 0 0 0 2.2149 0l12.1255-15.21q4.4534 4.2779 8.7775 8.6878 3.0672 3.1476 6.0607 6.3663c1.376 1.479 3.5873-.74 2.2149-2.2149q-7.3215-7.8678-15.0888-15.3031l4.2954-5.3883 5.2065-6.531a1.6148 1.6148 0 0 0 0-2.2149 1.5773 1.5773 0 0 0 -2.2149 0l-9.55 11.98c-1.5052-1.42-3.0137-2.8371-4.5427-4.2322q-3.2466-2.9627-6.5618-5.8489a1.6048 1.6048 0 0 0 -2.2147 0 1.58 1.58 0 0 0 0 2.2149q5.7875 5.0418 11.3674 10.3146-3.4413 4.3168-6.883 8.6343-2.6039 3.2649-5.2069 6.5305z"/><path d="m308.7485 516.24a1.7571 1.7571 0 0 0 1.2067.1578l4.6021-.8519a1.5784 1.5784 0 0 0 .9361-.72 1.5664 1.5664 0 0 0 -.5621-2.1428 1.7562 1.7562 0 0 0 -1.2067-.1577l-4.6019.8519a1.5774 1.5774 0 0 0 -.936.72 1.5656 1.5656 0 0 0 .5618 2.1428z"/><path d="m360.0618 515.35a1.5671 1.5671 0 0 0 0 3.1323 1.5671 1.5671 0 0 0 0-3.1323z"/><path d="m610.3566 231.1636a1.6141 1.6141 0 0 0 1.5662-1.5662q.4954-3.9664.9916-7.933 1.1688-.1461 2.338-.2922a1.6076 1.6076 0 0 0 1.5661-1.5662c-.0341-.7614-.6956-1.675-1.5661-1.5661l-2.7166.3395a1.4985 1.4985 0 0 0 -2.1557.2694l-4.9193.615a1.6072 1.6072 0 0 0 -1.5661 1.5662c.0341.7614.6954 1.675 1.5661 1.5661l4.2715-.534q-.471 3.7677-.9419 7.5353a1.5688 1.5688 0 0 0 1.5662 1.5662z"/><path d="m569.9666 257.4058a1.5662 1.5662 0 0 0 0 3.1323h8.5677a1.5662 1.5662 0 1 0 0-3.1323z"/><path d="m654.4183 255.6423a1.5671 1.5671 0 0 0 0-3.1323 1.5671 1.5671 0 0 0 0 3.1323z"/><path d="m659.3138 238.5072a1.5671 1.5671 0 0 0 0-3.1323 1.5671 1.5671 0 0 0 0 3.1323z"/><path d="m629.1026 301.9074a1.6021 1.6021 0 0 0 2.1427-.5618q1.2144-1.8423 2.4288-3.6846a1.5664 1.5664 0 0 0 -2.7041-1.581l-2.4288 3.6846a1.5663 1.5663 0 0 0 .5619 2.1427z"/><path d="m665.4336 645.393a1.5671 1.5671 0 0 0 0 3.1323 1.5671 1.5671 0 0 0 0-3.1323z"/><path d="m716.839 623.3623a1.5671 1.5671 0 0 0 0 3.1323 1.5671 1.5671 0 0 0 0-3.1323z"/><path d="m727.4062 226.8612c6.374 7.4669 12.8038 14.886 19.1831 22.3484 5.9055 6.908 11.7867 13.8419 17.4559 20.946q.9315 1.1669 1.8532 2.3411a1.2415 1.2415 0 0 0 .899.4436 1.4842 1.4842 0 0 0 .9988-.1987l36.7746-21.1681 36.6192-21.0784q18.3093-10.5393 36.6188-21.0784c4.5274-2.6059 9.6618-5.4781 11.6453-10.6188a12.9423 12.9423 0 0 0 -.3679-9.0776c-1.12-3.0827-2.61-6.058-4.0278-9.0123a253.5325 253.5325 0 0 0 -19.4337-33.618q-1.3558-1.9783-2.7492-3.9307a1.5883 1.5883 0 0 0 -2.1428-.5618q-18.4857 13.0647-36.4608 26.8325-17.992 13.7845-35.45 28.2471-6.4337 5.3325-12.78 10.7677l-14.9733-26.7633-5.158-9.22a1.5811 1.5811 0 0 0 -1.7686-.72 176.7853 176.7853 0 0 0 -29.61 13.7105c-4.6593 2.71-9.2247 5.6187-13.5918 8.78-1.9049 1.3792-3.86 3.1151-4.0041 5.6311-.1414 2.4655 1.7846 4.4179 3.2058 6.21 5.5959 7.0592 11.417 13.938 17.2643 20.7881zm-16.7039-28.2929a11.5726 11.5726 0 0 1 2.4553-2.0842q1.6548-1.1709 3.3367-2.3025 3.2964-2.2181 6.6916-4.2835a172.5453 172.5453 0 0 1 30.6566-14.7166q8.8176 15.76 17.6351 31.5211l2.1374 3.8205c-1.3847 1.188-2.7775 2.3666-4.1568 3.5609a1.5733 1.5733 0 0 0 .3168 2.46 10.7829 10.7829 0 0 0 9.0034-.06 1.5845 1.5845 0 0 0 .5618-2.1428q-.8729-1.56-1.7459-3.1207 14.1146-12.06 28.5972-23.6784 17.5107-14.0276 35.5541-27.3713 9.6264-7.1191 19.4008-14.0349a254.3684 254.3684 0 0 1 18.7926 31.2581q2.1306 4.2048 4.1038 8.4871c1.2845 2.7877 2.8894 5.7839 2.9628 8.9208.1214 5.1838-4.7838 8.4032-8.7446 10.735-11.8285 6.9634-23.7955 13.7018-35.6915 20.5493l-35.9956 20.72-35.84 20.63-3.3516 1.9291c-11.0016-13.9379-22.79-27.2511-34.3453-40.7264-5.8494-6.8213-11.6809-13.66-17.35-20.6331q-1.8659-2.2953-3.702-4.6146c-1.155-1.4627-2.7112-3.0325-1.2827-4.8229zm65.0032 15.6917a7.4679 7.4679 0 0 1 -1.819.1407q.64-.5513 1.2824-1.1.2683.4793.5366.9593z"/><path d="m621.1887 854.54c-2.7693-2.523-6.0834-4.3535-8.749-7.0013a19.6632 19.6632 0 0 1 -2.2518-2.8962 309.6741 309.6741 0 0 0 -25.5618 68.8475 1.5866 1.5866 0 0 1 -2.6176.6911 37.5635 37.5635 0 0 0 -6.8407-4.3806 39.5229 39.5229 0 0 0 -18.2408-4.1433c2.4571 7.8346 4.9152 15.6692 7.4694 23.4691 2.6477 8.0852 5.4078 16.1352 8.3915 24.1032 1.5124 4.0387 3.0707 8.0632 4.7232 12.0469 1.1877 2.8629 2.5527 5.8489 5.0182 7.8456 5.2243 4.23 11.0395.6605 14.06-4.231a42.7765 42.7765 0 0 0 3.9054-9.5236q2.108-6.5186 4.2162-13.037l16.7475-51.7854c3.9426-12.1917 11.1876-29.567-.2697-40.005z"/><path d="m862.3741 400.9986-2.6735-3.0272a11.8274 11.8274 0 0 0 -2.3393-2.3106c-1.7833-1.1282-3.9911-.3527-5.7721.39-2.3159.9654-4.5723 2.0438-6.9282 2.9174q-3.4753 1.2888-7.0663 2.2316a77.4 77.4 0 0 1 -29.3593 1.95 2.2857 2.2857 0 0 1 -.5807-.1519q-1.2228 1.4678-2.49 2.8978a133.4416 133.4416 0 0 1 -21.1818 19.4016 175.3489 175.3489 0 0 1 -24.9479 14.7457c-17.2836 8.6105-35.42 15.3748-52.647 24.1044-17.748 8.9934-34.7086 20.3488-46.34 36.7749-8.06-2.3847-15.6555-6.4-23.1995-10.0985 29.2556-24.6575 58.9366-49.2386 85.3505-76.9617q5.0559-5.3065 9.9213-10.789a1.5859 1.5859 0 0 0 -.3171-2.46c-8.26-4.4762-18.2168-6.0867-27.3624-7.6368-13.8329-2.3448-27.821-3.782-41.7912-5.0105q-5.532-.4866-11.0679-.9177a26.3924 26.3924 0 0 1 15.8625-15.44q.7361 1.0737 1.5735 2.0845c2.2213 2.6688 5.2055 5.3325 8.6368 6.2258a7.2446 7.2446 0 0 0 5.4426-.5445 6.429 6.429 0 0 0 2.9933-3.86 4.8346 4.8346 0 0 0 -1.46-4.8147 12.46 12.46 0 0 0 -4.5116-2.3217 20.8125 20.8125 0 0 0 -11.28-.412q-.56-.981-1.04-2.0074c-5.2047-11.1009-3.4191-25.1416 2.7974-35.4494a32.4232 32.4232 0 0 1 11.6758-11.5594c2.6656 3.5023 6.2549 6.2451 10.7074 6.9159 6.5685.9895 14.57-2.4262 15.8879-9.5368a1.6033 1.6033 0 0 0 -.72-1.7687 29.7158 29.7158 0 0 0 -20.8067-1.1493 32.179 32.179 0 0 0 -4.0229 1.5213 24.5549 24.5549 0 0 1 -1.3536-2.5637 34.0843 34.0843 0 0 1 -2.222-19.4964 28.4119 28.4119 0 0 1 9.533-17.2162c5.42-4.4845 12.9119-6.7172 19.8332-5.0536 1.9589.4708 2.7948-2.5488.8325-3.0205a26.091 26.091 0 0 0 -20.67 4.1826 30.5267 30.5267 0 0 0 -12.1387 18.2762 37.8448 37.8448 0 0 0 1.4165 22.229 29.6188 29.6188 0 0 0 1.9921 4.0931 34.9834 34.9834 0 0 0 -10.27 9.0773c-8.3158 10.8523-11.1323 26.7-6.2409 39.5827a32.604 32.604 0 0 0 1.7609 3.86 30.1386 30.1386 0 0 0 -15.8307 14.1006 28.66 28.66 0 0 0 -1.6235 3.8168c-26.0159-1.9742-52.0831-3.2064-78.1228-4.8336q-1.599-.1-3.2029-.1946a106.4659 106.4659 0 0 0 15.527-3.2737c8.29-2.4249 16.7016-5.7843 23.3193-11.4681a44.9315 44.9315 0 0 0 14.8272-41.134 40.1771 40.1771 0 0 0 -11.2126-21.1892c-5.89-5.9121-13.8851-10.3793-22.4172-10.2761a27.2945 27.2945 0 0 0 -13.0284 3.8787c-3.9368 2.1987-7.6977 4.8844-12.1231 6.0161a22.6422 22.6422 0 0 1 -21.8189-6.4313c-3.2883-3.5714-5.311-8.1028-8.5922-11.6931a30.738 30.738 0 0 0 -10.788-7.5195 30.3448 30.3448 0 0 0 -13.07-2.3914c-4.261.1947-8.44 1.15-12.6773 1.5734-3.8392.3831-7.9906.422-11.2945-1.86-3.308-2.2845-4.4984-6.4056-4.6215-10.2395a59.2839 59.2839 0 0 1 .48-6.8335 52.5385 52.5385 0 0 0 .08-7.8446 35.3319 35.3319 0 0 0 -3.1114-13.1479 15.4628 15.4628 0 0 0 -5.3525-6.3119 1.8306 1.8306 0 0 0 -.1652-.9545c-3.7166-8.1091-13-10.8647-21.094-12.1139a96.2244 96.2244 0 0 0 -14.6513-1.5446 10.3533 10.3533 0 0 0 -3.3931.3088 3.4213 3.4213 0 0 0 -2.222 2.616 13.3191 13.3191 0 0 0 .41 6.7466 7.2216 7.2216 0 0 0 1.8412 3.2991c.0219.0189.0461.0321.0683.05-.3941.1261-.7874.2549-1.1853.3687a21.2279 21.2279 0 0 1 -6.74.9741 13.52 13.52 0 0 1 -3.1545-.4292 1.5865 1.5865 0 0 0 -1.7686 2.3008 4.4126 4.4126 0 0 1 .3462 1.1012c.0041.04.0166.1382.0176.1526.0076.1127.0122.226.013.3389s-.0026.2257-.0089.3383c0 0-.0342.271-.0355.3137a6.8935 6.8935 0 0 1 -1.0387 2.5551 30.517 30.517 0 0 1 -4.1578 4.9884 31.3855 31.3855 0 0 0 -4.4 5.548 25.5046 25.5046 0 0 0 -2.3362 20.73c1.584 4.925 4.3735 9.3147 6.7694 13.862.5707 1.0829 1.1289 2.1728 1.6431 3.2835l.013.0282c.0426.1065.0851.213.1236.321.0548.1539.1058.3091.1474.4672.0308.1175.0481.2545.0532.2793.0044.0849.01.17.0118.2551a.7371.7371 0 0 1 -.0054.0911 3.65 3.65 0 0 0 -.0971.4341c-.0964.3513-.222.6944-.3467 1.0365q-.3265.8958-.6418 1.794a27.9479 27.9479 0 0 0 -5.2958-.6036 6.1637 6.1637 0 0 0 -5.8884 3.7266c-1.0935 2.5086-.7881 5.3441-.6816 7.9979a72.8592 72.8592 0 0 1 -.4428 10.8994 1.8523 1.8523 0 0 0 -.2271.4694c-.0089.0275-.0155.0563-.0232.0849a1.8657 1.8657 0 0 0 -.0563.2963v.001l-.0013.01c-.81 8.3754-5.1346 15.5582-11.1925 20.9951a1.6985 1.6985 0 0 0 -1.0538.1712 3.6742 3.6742 0 0 1 -2.4889.3443 7.5 7.5 0 0 1 -2.8078-1.3157 17.5257 17.5257 0 0 1 -4.5708-5.2614 75.9032 75.9032 0 0 1 -6.7987-14.3189c-1.84-5.0384-3.35-10.1888-4.886-15.3255-.7515-2.5128-1.4841-5.0364-2.3245-7.5211a22.4988 22.4988 0 0 0 -3.0605-6.3518 11.2572 11.2572 0 0 0 -7.09-4.485 20.1437 20.1437 0 0 0 -8.8441.6892 1.5675 1.5675 0 0 0 .8326 3.02 16.83 16.83 0 0 1 7.1791-.6882 8.2318 8.2318 0 0 1 5.389 3.2771 21.5339 21.5339 0 0 1 2.8216 6.1209c.8213 2.5358 1.5758 5.0938 2.3385 7.6476 3.091 10.3491 6.2134 20.926 12.1033 30.0918 1.9455 3.0275 5.1135 6.521 8.7428 7.41a46.99 46.99 0 0 1 -11.49 5.6117c-10.5682 3.401-21.5609 2.5906-31.875-.8534-.1925-.0655-.3857-.1274-.5776-.1947l-.0459-.0161a81.1892 81.1892 0 0 1 -16.4243-8.0991c-.5633-.3588-1.1249-.72-1.6808-1.09-.2313-.1534-.46-.309-.69-.464q-1.0266-.6954-2.0385-1.4125a119.9946 119.9946 0 0 1 -10.8958-8.8575c2.1361-4.3434 4.3893-8.6338 6.933-12.7542q.9876-1.6 2.0349-3.1624c.4105-.6109.9259-1.2223 1.3243-1.8762a1.4827 1.4827 0 0 0 .9569-.1907 1.5809 1.5809 0 0 0 .5618-2.1428 76.8675 76.8675 0 0 1 -12.4623-32.5155c-.5121-3.7322-.6294-7.5029-1.0472-11.245-.4861-4.3529-1.3724-8.6931-3.6477-12.4966a1.5674 1.5674 0 0 0 -2.7049 1.5809c3.8943 6.51 3.2868 14.5274 4.218 21.7868a80.5368 80.5368 0 0 0 6.4566 22.8474 77.7113 77.7113 0 0 0 4.9019 9.1785 1.899 1.899 0 0 0 -.1981 1.4553 1.6752 1.6752 0 0 0 .1267.3114c-.3495.5094-.7084 1.0121-1.0546 1.5241q-1.0526 1.5579-2.0428 3.157c-2.4726 3.985-4.6712 8.1311-6.7518 12.3322q-1.5718-1.4715-3.12-2.9721c-2.9383-2.9043-5.8382-5.8486-8.8887-8.632-5.3217-4.9-11.2251-9.3209-18.3029-11.1184a27.1543 27.1543 0 0 0 -3.2057-.6082l-.0092-.0014-.01-.0013c-.4087-.0525-.817-.0987-1.2254-.1328-.2791-.0249-.558-.0411-.8369-.0574l-.0377-.002a29.31 29.31 0 0 0 -5.742.2474c-.0077-.043-.0079-.0835-.0189-.1276-.8784-3.5047-.1165-7.063.9648-10.5226 1.1395-3.646 2.6414-7.1924 3.4158-10.9448a20.8824 20.8824 0 0 0 .4124-6.5993 1.6136 1.6136 0 0 0 -1.5661-1.5661 1.5759 1.5759 0 0 0 -1.5662 1.5661c.89 7.7436-4.0087 14.7547-5.0054 22.3245a17.5616 17.5616 0 0 0 .296 6.4485 42.4337 42.4337 0 0 0 -10.5061 4.1429l-.1866.1021c-.1455.0805-.2928.1577-.4374.24-.0724.0409-.1432.0844-.2156.1257q-.4527.2577-.9.5246-.2676.1594-.5335.3223c-.0438.0268-.0882.0528-.132.08-.0372.0229-.0737.0473-.1109.07q-.723.4454-1.4341.9094l-.03.02q-.72.4708-1.428.9591c-.0476.0329-.0955.0652-.1432.0981q-.4941.3432-.9819.6957a98.2842 98.2842 0 0 0 -9.295 7.6244 160.7929 160.7929 0 0 0 -8.7171-16.44c-3.387-5.8189-6.8377-11.6778-9.2562-17.9821a48.3259 48.3259 0 0 1 -2.8912-10.833 1.6185 1.6185 0 0 0 -1.5662-1.5661c-.7588 0-1.679.7218-1.5661 1.5661 1.8858 14.0934 10.233 25.8168 16.9111 37.9865a98.006 98.006 0 0 1 4.6738 9.536c-2.2491 2.1629-4.4326 4.3878-6.5739 6.62a124.9261 124.9261 0 0 0 -12.387 14.8335c-3.79 5.3508-7.4479 11.43-9.2929 17.7648a23.6591 23.6591 0 0 0 -1.0719 5.69 21.0957 21.0957 0 0 0 2.0813 9.5872 76.76 76.76 0 0 0 5.1061 9.5946c.2184.3679.4456.73.6673 1.0959s.4413.7309.6661 1.0939q.7632 1.2312 1.5526 2.4456c.07.1084.1382.2185.2091.3267a146.1715 146.1715 0 0 0 41.5992 41.61c.1749.1162.3488.2337.5241.3492.49.3219.9837.638 1.4775.9541.432.2771.8634.5552 1.2982.828.2345.1468.4714.29.7066.4359a146.9424 146.9424 0 0 0 26.1164 12.8c.0492.0184.0979.0378.1471.0561.674.25 1.3518.49 2.03.73.2523.0892.5032.1818.756.2695.1277.0446.2544.0922.3821.1366.5751.1981 1.154.3859 1.7319.5771.2049.0676.4089.1377.6141.2044.7484.2442 1.5.4793 2.2531.711.1591.0489.3174.0994.4764.1478q1.209.3675 2.4252.7117c.1012.0288.2019.0587.3029.0872q1.2962.366 2.6.7064c.0436.0114.0872.0234.131.0346a133.5638 133.5638 0 0 0 31.1886 4.3811c.09.0018.18.0013.271.0028.8559.0141 1.7119.0227 2.5682.0192.3413-.0013.6821-.0107 1.0234-.0148.5736-.0074 1.1474-.0094 1.7209-.0247.0342-.0011.0683-.0031.1025-.0041a110.2881 110.2881 0 0 0 34.5322-6.359c.2862-.1024.5707-.21.8565-.3155.3785-.1408.7593-.2738 1.1368-.4191.1456-.0561.2891-.1173.4344-.1741.61-.2358 1.2149-.4808 1.82-.7283.1371-.0566.2748-.1121.4117-.1692q2.472-1.0248 4.89-2.1821c-.0907 39.2761 5.1894 78.4537 14.3029 116.6244 4.4765 18.75 9.451 37.6707 16.6629 55.5785a139.4189 139.4189 0 0 0 12.6587 24.8232c1.9511 2.9562 4.246 5.9835 7.5591 7.4826a9.9224 9.9224 0 0 0 6.7614.4384 867.7851 867.7851 0 0 0 41.1015 93.9497c15.6955 30.7519 33.7947 60.2746 48.1685 91.6985 10.517 22.9927 18.1778 47.0214 25.731 71.0909a42.693 42.693 0 0 1 26.2178 7.869q2.3229-9.306 5.2014-18.46a316.3287 316.3287 0 0 1 13.6937-35.6367q3.4669-7.6216 7.3472-15.0447c-2.29-5.32-2.8787-11.477-3.7079-17.108q-2.012-13.6625-4.9075-27.1757a433.2449 433.2449 0 0 0 -14.7581-52.4959 435.6366 435.6366 0 0 0 -48.749-97.7527c-5.676-8.5028-11.7365-17.073-14.9386-26.884-3.1288-9.586-2.0747-20.29-6.569-29.4217q12.252-9.6444 24.4375-19.3731 9.0211-7.2033 18.0009-14.4584a406.94 406.94 0 0 0 44.3184 17.2875c15.2287 5.0227 31.0081 8.98 47.1045 9.515a104.9439 104.9439 0 0 0 41.1843-7.0809 153.7094 153.7094 0 0 0 35.1639-19.705 317.4619 317.4619 0 0 0 31.59-26.9091c10.0217-9.5529 19.8142-19.3577 29.1645-29.5706 19.26-21.0358 37.0785-43.3875 57.1059-63.7195a249.37 249.37 0 0 1 28.4587-25.3048q-4.4674-5.0581-8.935-10.1165zm-188.3827-30.4625a16.3027 16.3027 0 0 1 7.311 1.6838 3.9375 3.9375 0 0 1 1.571 1.1977 1.5022 1.5022 0 0 1 .1729 1.3579 3.2881 3.2881 0 0 1 -2.1028 2.15c-2.9806.9588-6.2162-1.8223-8.155-3.7488a22.9663 22.9663 0 0 1 -2.0747-2.3751 19.7261 19.7261 0 0 1 3.2776-.2655zm28.3364-54.696a24.5289 24.5289 0 0 1 3.1458.968c-1.5373 4.1661-6.3049 6.3007-10.7189 6.1075-3.9016-.171-7.1593-2.4089-9.61-5.3945a27.8161 27.8161 0 0 1 17.1831-1.6811zm-286.399-29.3067c.052.1133.0273.061 0 0zm-4.6549-15.9261a23.11 23.11 0 0 1 -1.3655-13.7829 22.7366 22.7366 0 0 1 2.4094-6.3044 27.2062 27.2062 0 0 1 4.1155-5.2687c2.8024-2.954 6.3716-6.675 6.0951-10.8546 6.9355.7146 13.3875-2.502 19.85-5.0753.6342.2426 1.27.4742 1.9014.6967a59.0209 59.0209 0 0 0 16.0431 3.2093c1.3174.0792 2.6363.102 3.9547.0894a46.7867 46.7867 0 0 0 -11.7523 12.3637c-.7051 1.0854.4843 2.7947 1.7685 2.3007 3.3034-1.2709 6.8089 1.2911 7.827 4.4494 1.1874 3.6829-1.1354 7.4692-3.9682 9.6878a24.0071 24.0071 0 0 1 -5.7244 2.86 10.4033 10.4033 0 0 0 -5.1059 4.8817 45.0072 45.0072 0 0 0 -4.5827 13.544 56.3519 56.3519 0 0 0 -.7487 12.9721 10.5631 10.5631 0 0 0 -3.6589-.904l-5.5894-.9994q-5.8437-1.0449-11.687-2.09c-.9243-.1653-1.867-.3655-2.8191-.5717q.2367-.6758.4844-1.3483a10.6812 10.6812 0 0 0 .5564-1.8 7.3436 7.3436 0 0 0 -1.0522-4.581c-2.2127-4.5358-5.0651-8.783-6.9512-13.4745zm221.6184 219.46q-7.37 6.2263-14.7656 12.4214l-.2908.2435q-7.3628 6.1666-14.7513 12.3021l-.0576.0479q-14.2977 11.8716-28.6961 23.6216-1.5371 1.2546-3.0757 2.5063-7.0362 5.7332-14.0947 11.4385-1.3853 1.1192-2.7688 2.2411-21.2418 17.136-42.6954 34.0079l-.0073.0048q-16.9835 13.3595-34.0938 26.5564-1.1046.8519-2.209 1.7043-7.9351 6.1125-15.8976 12.19-5.2683 4.0194-10.5469 8.025c-.3622.2748-.7379.57-1.1244.8743a32.9644 32.9644 0 0 1 -6.7125 4.2669.9586.9586 0 0 0 -.1945.1173 7.3963 7.3963 0 0 1 -4.106.33c-4.1311-.9248-6.66-5.3214-8.7281-8.63a128.8412 128.8412 0 0 1 -6.5254-11.8221c-8.2139-16.8367-13.3172-35.1435-18.0529-53.2053-9.9727-38.0356-16.2687-77.1386-17.24-116.485q-.1671-6.7684-.117-13.5389a99.196 99.196 0 0 0 18.6881-12.7166 122.6992 122.6992 0 0 0 19.12-21.3375c2.971-4.1161 5.7314-8.3791 8.3309-12.7385a1.5673 1.5673 0 0 0 -2.7045-1.581c-9.5091 15.9459-21.3858 30.8214-37.0821 41.0389a95.3862 95.3862 0 0 1 -9.52 5.4318c-.43.2131-.86.4252-1.2927.6314-.3056.1466-.6128.29-.92.4331-.7061.3278-1.4132.6518-2.1252.962l-.0581.0253c-24.3565 10.5891-52.0349 10.8731-77.5189 3.9008q-.2691-.0741-.5378-.1493-1.0256-.285-2.0462-.5861c-.3265-.0963-.6526-.195-.9786-.2939q-.8454-.2558-1.6872-.5208c-.3826-.1211-.7637-.246-1.1451-.37-.5623-.1835-1.1244-.3683-1.6844-.5587-.3831-.13-.7652-.2646-1.1474-.3982q-.8576-.3-1.7124-.6087c-.3322-.1208-.6628-.2452-.9942-.3683-.6352-.2371-1.27-.4762-1.9016-.7222-.2386-.0928-.4762-.1876-.714-.2817q-1.1051-.437-2.2032-.89c-.1152-.0477-.23-.0964-.3451-.1445a145.15 145.15 0 0 1 -26.0567-14.2l-.0464-.0321q-1.1877-.8152-2.3592-1.6539c-.218-.1562-.4331-.3166-.65-.4741-.6059-.4387-1.2116-.8777-1.8106-1.3255q-1.3088-.9809-2.5975-1.99c-.0724-.0567-.1435-.1151-.2157-.1718q-1.26-.9927-2.5-2.0119c-.0606-.05-.12-.1-.1807-.15q-1.2806-1.0583-2.5384-2.1446l-.0515-.0446a144.867 144.867 0 0 1 -14.7445-14.7464q-.1209-.14-.2412-.28-.96-1.1166-1.8952-2.2533c-.1277-.1552-.2567-.31-.3839-.4656q-.8829-1.08-1.742-2.18c-.1311-.1672-.2646-.3325-.3949-.5q-1.0132-1.3039-1.9959-2.6306l-.0311-.0414q-.9648-1.3056-1.895-2.6349c-.231-.3284-.4553-.6613-.6832-.9918-.39-.5658-.7787-1.1326-1.16-1.7041-.2649-.397-.5249-.7972-.7857-1.1969q-.4989-.7645-.9885-1.5356-.483-.7635-.9564-1.533c-.2111-.3426-.4183-.6875-.6261-1.0321-.3966-.66-.7915-1.32-1.1761-1.9867-.0752-.13-.1476-.2611-.2221-.3912-.45-.7861-.8952-1.575-1.3288-2.37-.0257-.0474-.0517-.0953-.0777-.1428-.4823-.8909-.96-1.7846-1.4176-2.6878a29.1157 29.1157 0 0 1 -2.4943-6.3673c-.0046-.02-.01-.0406-.0153-.0611-.0173-.075-.03-.1513-.0464-.2265a15.44 15.44 0 0 1 -.3163-2.2595c-.0013-.0262-.0033-.0522-.0048-.0782-.0113-.2008-.0143-.4029-.0169-.6051-.001-.1843-.0017-.3688.0044-.5529.0015-.0575.003-.115.0051-.1725a19.0709 19.0709 0 0 1 .8514-4.6626 42.0982 42.0982 0 0 1 1.5195-4.1494c.444-1.0053.9161-1.9887 1.3851-2.9442.8757-1.7835 1.83-3.5267 2.8479-5.2321q.1274-.2116.2551-.4222.25-.4122.5035-.8215.2589-.4162.5238-.8281c.1244-.1948.2473-.3907.3732-.5845q.45-.6924.9136-1.3765c.0382-.0566.0778-.1122.116-.1686q.4144-.6075.8386-1.2079c.4706-.6678.9529-1.3264 1.4408-1.9812q.3074-.4117.6186-.8209.6558-.8613 1.3291-1.7089c.282-.3539.5682-.7043.8542-1.0547q.3361-.4112.6763-.8188c.258-.31.5152-.62.7762-.9271.6811-.8009 1.3747-1.5962 2.0727-2.389 2.77-3.1027 5.6816-6.0823 8.6467-8.9879 2.6386-2.5857 5.3424-5.1325 8.1749-7.5181.5134-.4273 1.0265-.8542 1.5453-1.2722a67.0547 67.0547 0 0 1 9.5073-6.4982c6.324-3.51 13.4739-5.5445 20.5928-4.3625.1845.0332.3675.07.5508.1076.0869.0165.1741.035.261.0525 7.05 1.5134 13.1046 5.9941 18.406 10.9176q1.2625 1.1727 2.4917 2.3794l.08.0789c2.4729 2.4183 4.8813 4.903 7.3745 7.3006 3.36 3.2308 6.8556 6.3245 10.5132 9.2156 2.9307 2.3167 6.0271 4.5475 9.2568 6.6146q.1135.0735.2276.1467.8508.5412 1.7125 1.0679 2.0926 1.2828 4.2712 2.45c.1818.098.3643.1942.5466.291.4045.2128.8067.429 1.2159.6355 10.2376 5.2243 21.48 8.3765 32.9729 7.25a50.0636 50.0636 0 0 0 5.3719-.83l.0479-.01q.2776-.0585.5552-.12a46.32 46.32 0 0 0 4.6016-1.234q1.0554-.3432 2.0989-.7347l.0238-.0086c.1922-.0721.3836-.1476.575-.222 10.3111-3.9544 19.4554-11.2625 23.9933-21.35.053-.1176.0994-.2369.1509-.3548.1978-.4447.39-.8927.5692-1.3476a30.94 30.94 0 0 0 1.4614-4.8895c.0166-.0762.0316-.1531.0479-.2295.0586-.2844.115-.5691.1667-.8551q.0661-.3584.1252-.7187c.0165-.1044.0318-.2091.0476-.3137q.09-.5877.1606-1.1806a1.959 1.959 0 0 0 .3026-.8308 76.2746 76.2746 0 0 0 .6039-9.8814c-.0286-2.6933-.7451-6.002.31-8.5723 1.4356-3.5 6.6311-1.518 9.3765-1.027l11.1788 1.999q4.8273.863 9.6544 1.7262a16.8652 16.8652 0 0 1 3.003.3531 8.3607 8.3607 0 0 1 1.481 1.2925q.47.41.9389.8194a63.5791 63.5791 0 0 0 2.6067 11.4789q.565 1.73 1.2166 3.4262l-.0081.0626a1.297 1.297 0 0 0 .4754 1.1147 90.6207 90.6207 0 0 0 11.985 20.7279 113.2985 113.2985 0 0 0 41.9419 34.3005 114.705 114.705 0 0 0 34.7573 9.9656 1.6447 1.6447 0 0 0 .2238.06c9.4308 1.5381 19.048 2.0738 28.5711 2.7074 14.2318.9467 28.4763 1.696 42.7153 2.5233 13.5127.7852 27.0672 1.5325 40.6036 2.518-2.6911 11.7239 1.7468 24.614 8.2011 34.43 1.0426 1.5855 2.1624 3.1145 3.3251 4.6136a1.5743 1.5743 0 0 0 2.2149 0 1.6069 1.6069 0 0 0 0-2.2149c-7.8474-10.12-13.5992-23.6611-10.5443-36.59 15.9111 1.205 31.7911 2.7676 47.5414 5.1471 6.4061.9678 12.8066 2.0857 19.0952 3.6577a61.8527 61.8527 0 0 1 11.1357 3.6478c-25.1748 28.0429-54.15 52.3969-82.7871 76.78q-6.3679 5.4219-12.7577 10.8181c-.0113.0088-.023.0157-.0342.0254z"/><path d="m892.4951 376.56c-4.6039-6.1783-12.7523-6.2733-19.7424-5.4491-10.15 1.1968-20.2377 3.0348-30.406 4.0644-7.983.8084-16.4268 1.0245-21.6152 8.1091-2.5759 3.5173-4.28 7.6323-6.7151 11.2591q-1.9519 2.9075-4.1111 5.6628a75.8985 75.8985 0 0 0 15.2376.067 74.2213 74.2213 0 0 0 14.4492-2.8965 73.0017 73.0017 0 0 0 7.0822-2.5511c2.233-.9412 4.4231-2.2008 6.8234-2.6643a7.4717 7.4717 0 0 1 6.911 1.9611c.9083.8717 1.7092 1.8635 2.5417 2.806q1.38 1.5624 2.76 3.1248 4.0683 4.6062 8.1364 9.2124 3.655-2.619 7.45-5.0349a35.8048 35.8048 0 0 0 7.0016-5.1618c3.8094-3.9591 6.6276-9.471 6.5231-15.0651a13.5652 13.5652 0 0 0 -2.3264-7.4439z"/><path d="m493.3955 146.5328.0158.0123c.0234-.019.0071-.0196-.0158-.0123z"/><path d="m493.42 146.5511a.0668.0668 0 0 1 .0135-.0156l-.0191.0117z"/><path d="m584.6343 157.0491a117.5918 117.5918 0 0 0 29.19-32.5693c1.7931-2.9744 4.71-6.714 2.59-10.2149a21.0844 21.0844 0 0 0 -3.7176-4.1656 50.426 50.426 0 0 0 -4.3467-3.6063c-6.1841-4.6237-13.2084-8.1038-19.9466-11.8287q-22.5984-12.4927-45.2131-24.9556-2.79-1.5375-5.58-3.0748a1.69 1.69 0 0 0 -.1911-.082l-.0212-.0091a1.6031 1.6031 0 0 0 -.2167-.0694 1.4932 1.4932 0 0 0 -.1588-.031c-.0326-.0041-.065-.0089-.0974-.0108-.0349-.0028-.07-.0115-.1052-.0115a1.6 1.6 0 0 0 -1.5662 1.5662c-.6658 6.8541-3.7132 13.8456-6.9779 19.9738a73.7551 73.7551 0 0 1 -13.074 18.1736 57.0623 57.0623 0 0 1 -9.5682 7.213c-3.9717 2.5218-8.1035 4.78-12.282 6.9378-8.3075 4.2894-16.8308 8.1852-24.84 13.03-8.5216 5.1551-16.464 11.4044-22.29 19.5667a1.5858 1.5858 0 0 0 .9357 2.3007 155.81 155.81 0 0 1 32.8327 18.1781 157.8609 157.8609 0 0 1 27.6825 25.5523 153.3213 153.3213 0 0 1 12.5693 16.9956c.6676 1.0457 2.6 1.0262 2.8626-.374 2.5287-13.4939 11.918-24.3488 22.432-32.6082 12.3157-9.6757 26.6673-16.3577 39.0979-25.8766zm-40.6581-56.8443a161.1176 161.1176 0 0 1 20.2155 12.82 1.6036 1.6036 0 0 1 .5618 2.1427 1.5768 1.5768 0 0 1 -2.1428.562 161.11 161.11 0 0 0 -20.2155-12.82c-1.7803-.9516-.1963-3.6546 1.581-2.7047zm-24.7437 68.9011q-2.766-2.8227-5.686-5.4882a136.9046 136.9046 0 0 0 -18.4554-14.127 3.6056 3.6056 0 0 1 -.4889.3507 5.1137 5.1137 0 0 1 -5.2623-.2607 6.2818 6.2818 0 0 1 -2.0375-8.2137 1.5673 1.5673 0 0 1 2.7046 1.5809c-.0673.1132-.1334.2284-.19.3477-.0087.0314-.051.1489-.0648.2-.0336.1245-.0642.2486-.092.3744l-.0163.07c.0033-.0005.0056.01.0051.0493-.0025.1292-.0112.2578-.0079.3872 0 .0217.0112.1745.0153.2539.014.0765.04.2349.0449.2572q.0432.1916.1017.3787a3.1 3.1 0 0 0 1.1919 1.63 1.65 1.65 0 0 1 -.252-1.8963c.9595-2.07 4.0286-1.9516 5.2072-.1958a3.147 3.147 0 0 1 .5239 1.8461q1.6047 1.0211 3.1828 2.0837a141.4056 141.4056 0 0 1 21.7906 18.1573c1.4126 1.4411-.8015 3.6566-2.2149 2.2146zm17.1828-15.8759a1.6011 1.6011 0 0 1 -2.2151 0q-2.7343-2.4681-5.6294-4.7489a106.1708 106.1708 0 0 0 -21.874-13.2068 1.5786 1.5786 0 0 1 -.562-2.1428 1.6142 1.6142 0 0 1 2.143-.5618q3.409 1.5405 6.7076 3.3105a109.3792 109.3792 0 0 1 21.43 15.1349 1.5822 1.5822 0 0 1 -.0001 2.2149zm-13.3694-32.7182a1.5789 1.5789 0 0 1 -.5618-2.1428 1.6126 1.6126 0 0 1 2.1427-.5619q3.4489 1.5795 6.7569 3.4432a90.6867 90.6867 0 0 1 21.31 16.6982c1.3831 1.4667-.829 3.6845-2.2149 2.2149q-2.6028-2.76-5.43-5.2943a87.8915 87.8915 0 0 0 -22.0029-14.3578z"/><path d="m493.363 146.583v.001l.002-.009z"/><path d="m358.5377 42.12a91.0234 91.0234 0 0 0 -64.2859-16.4025 102.573 102.573 0 0 0 -55.7663 26.2949 91.7825 91.7825 0 0 0 -18.6577 23.9342 84.69 84.69 0 0 0 -9.5657 31.7841 75.69 75.69 0 0 0 3.6666 32.4617c3.3276 9.2828 8.9626 17.4882 13.1454 26.3724a49.2792 49.2792 0 0 1 4.3438 13.1887q.075.4745.1326.949c.0008.0084-.0015.016 0 .0244.1114.994.18 1.9958.2014 2.9986a28.7611 28.7611 0 0 1 -1.1871 8.4917c-.0148.0482-.0288.0967-.0439.1448-.0405.1349-.0839.2693-.1262.4039q-.2672.8317-.57 1.6525l-.0015.0042q-.1648.4464-.3385.89c-1.7388 4.4461-3.9736 8.9237-3.8117 13.8244.0064.1944.0291.3842.0408.577.0087.148.0107.2946.0237.4436.0059.0651.015.1293.0214.1942a21.9929 21.9929 0 0 0 1.7153 6.6673c.09.2126.1843.4231.28.6332.08.1741.16.3487.2439.521q.283.5831.596 1.1524l.014.0258a28.9515 28.9515 0 0 0 2.6817 4.0246 41.7355 41.7355 0 0 0 9.0793 8.2572l.0217.0152q.4179.2889.8389.57a63.7647 63.7647 0 0 0 17.817 8.3615 52.2731 52.2731 0 0 0 9.0009 1.8833c.1628.02.3257.0367.4889.0543.066.0067.132.0145.1983.0209a34.1227 34.1227 0 0 0 5.2509.1565c.0619-.0026.1241-.003.1863-.0059.1053-.0048.209-.015.3138-.0215l.0614-.0042q.4351-.0286.8649-.0757l.0245-.0028c.2-.0222.4-.0449.5983-.0732.0917-.0117.184-.0208.2755-.0336.1458-.02.287-.0549.4318-.0789l.08-.0147a18.3918 18.3918 0 0 0 7.6539-3.2617q.3572-.2544.7053-.5257.16-.1257.3177-.2549.411-.3336.8083-.6916c.04-.0354.0813-.0673.1205-.103.0232-.0214.0447-.0443.0678-.0658.039-.0358.0791-.0693.1176-.1052.1165-.1089.2243-.2259.3385-.3365.2406-.2331.4807-.4667.7122-.7078.1743-.1812.3431-.3673.5129-.5527.1674-.1834.3354-.3666.4986-.5537q.3685-.4212.7239-.8543c.0428-.0521.0859-.104.1282-.1564 1.8841-2.3081 3.5359-4.8219 5.2223-7.2594.5443-.7695 1.0979-1.53 1.6715-2.273q.0585-.075.1172-.1495c.1986-.2552.4018-.5059.6057-.7561a26.7878 26.7878 0 0 1 7.6687-6.5386c4.9159-2.7059 10.6141-4.0788 16.0306-5.3888 5.6154-1.3582 11.2907-2.4749 16.8546-4.0411a70.9881 70.9881 0 0 0 16.5-6.7821 85.5607 85.5607 0 0 0 12.5645-8.93 90.0022 90.0022 0 0 0 19.52-23.6631 96.4309 96.4309 0 0 0 6.3742-13.5114 96.4009 96.4009 0 0 0 -34.1192-112.8021zm-81.4493 193.0908a62.8375 62.8375 0 0 1 -42.3661-21.2621 1.5971 1.5971 0 0 1 0-2.2149 1.5809 1.5809 0 0 1 2.2149 0 59.7265 59.7265 0 0 0 40.1512 20.3446 1.5977 1.5977 0 0 1 1.5661 1.5662 1.5793 1.5793 0 0 1 -1.5661 1.5662zm9.11-8.6315a74.04 74.04 0 0 1 -12.6159-2.0966 75.4967 75.4967 0 0 1 -20.5175-8.7127 73.7954 73.7954 0 0 1 -17.1094-14.425 1.5968 1.5968 0 0 1 0-2.2149 1.5807 1.5807 0 0 1 2.2149 0 71.6885 71.6885 0 0 0 48.0283 24.3165 1.5974 1.5974 0 0 1 1.5661 1.5661 1.5793 1.5793 0 0 1 -1.5661 1.5666zm4.755-9.7411a74.0489 74.0489 0 0 1 -12.6161-2.0967 75.4931 75.4931 0 0 1 -20.5179-8.7121 73.8111 73.8111 0 0 1 -17.1094-14.4252 1.5974 1.5974 0 0 1 0-2.2149 1.5809 1.5809 0 0 1 2.2149 0 71.688 71.688 0 0 0 48.0285 24.3166 1.5975 1.5975 0 0 1 1.5662 1.5662 1.5793 1.5793 0 0 1 -1.5658 1.5661zm-21.75-60.4779c.0051-.0235.011-.0469.0158-.07 1.0492.5408 2.1119 1.0517 3.1914 1.5107a47.6679 47.6679 0 0 0 8.2723 2.6951 39.38 39.38 0 0 0 5.8224.9019c-.6434.82-1.2169 1.7106-1.7849 2.5766a79.0169 79.0169 0 0 0 -4.0943 7.0625c-2.5195 4.8754-4.6258 9.9512-6.7016 15.0271q-.3483.8519-.6964 1.7037a79.8381 79.8381 0 0 0 -12.0938-4.9785 137.2767 137.2767 0 0 0 5.44-15.4937c1.0274-3.6138 1.8431-7.2644 2.63-10.9357zm-3.5516-5.8918a29.0587 29.0587 0 0 1 -9.8517-11.5417c-.1966-.4382-.37-.8762-.5728-1.4553-.2312-.6589-.4344-1.3287-.6019-2.0068a13.0211 13.0211 0 0 1 -.3642-4.4135 7.28 7.28 0 0 1 1.3354-3.6346 5.9074 5.9074 0 0 1 2.7785-1.9621 7.6726 7.6726 0 0 1 6.9692 1.0733c.07.0478.416.3079.4313.3134.208.17.4117.3446.607.5293a13.2566 13.2566 0 0 1 .9559 1.037c.0234.0346.16.2222.1552.215q.1178.1674.2289.3394.1851.2857.3518.583.2.3565.3745.727c.0448.095.0871.1913.13.2875.015.04.066.1671.0869.2223a15.898 15.898 0 0 1 .7953 3.136l.0122.0758c.0021.0225.0046.049.0084.084.01.0971.022.194.0319.291q.0455.4413.0721.8839c.0368.6025.05 1.2062.0429 1.81a36.654 36.654 0 0 1 -.74 6.7848c-.48 2.5691-1.106 5.1057-1.7277 7.6434-.5067-.33-1.0109-.6678-1.5082-1.0221zm22.9183 13.4041a21.5011 21.5011 0 0 0 3.6829 4.52 30.0943 30.0943 0 0 0 9.6 5.8982c-.94 1.3636-1.8624 2.7384-2.7854 4.1081-4.0865 6.0645-8.128 12.1646-11.8986 18.4317a81.377 81.377 0 0 0 -6.7635-4.9165q-2.163-1.4072-4.42-2.6674c.0387-.095.0782-.19.117-.2849.9842-2.4107 1.9618-4.8242 2.9847-7.2185a110.7746 110.7746 0 0 1 7.1527-14.3139q1.1089-1.8144 2.3311-3.5568zm1.1027-21.98a19.3571 19.3571 0 0 1 4.1326-7.2491c1.8972-2.0115 4.508-3.7643 7.3982-3.8849 3.0013-.1253 5.1213 1.8692 6.181 4.4884a14.0556 14.0556 0 0 1 .4537 8.6453c-1.4652 5.8518-6.0433 10.4067-11.4956 12.747a20.1817 20.1817 0 0 1 -6.9536 1.6 26.9306 26.9306 0 0 1 .2846-16.3469zm104.1038-1.8944a95.7821 95.7821 0 0 1 -4.1406 14.0918c-7.1331 18.6388-20.4345 34.8874-37.885 44.728-10.154 5.726-21.681 7.51-32.8447 10.2821-5.16 1.2813-10.51 2.6962-15.2353 5.2092a146.7507 146.7507 0 0 0 -10.9394-12.5521q-1.5257-1.4847-3.1323-2.8858 2.4039-4.0169 4.9406-7.9526c2.0515-3.1932 4.1514-6.3551 6.2682-9.5055 1.3622-2.0278 2.7112-4.0679 4.1053-6.0753a40.5759 40.5759 0 0 0 4.3316 1.0222 36.2276 36.2276 0 0 0 16.0114-.535 28.4644 28.4644 0 0 0 7.5248-3.1339 13.6368 13.6368 0 0 0 5.1969-5.2656 9.4844 9.4844 0 0 0 -.3041-9.0444c-1.8818-3.1392-5.45-4.4788-8.9914-4.3144-6.596.3063-12.721 4.2017-17.37 8.6325a63.8039 63.8039 0 0 0 -7.597 8.956c-.506-.1875-1.0077-.3828-1.5014-.5917-4.6213-1.9554-8.9116-5.0523-11.3827-9.47.053-.0242.1042-.0535.1585-.0736a1.9494 1.9494 0 0 0 .5481-.3131 24.5447 24.5447 0 0 0 15.3253-8.6092c4.359-5.3872 6.166-13.2476 2.9-19.6368a9.2623 9.2623 0 0 0 -8.3442-5.3413 14.1248 14.1248 0 0 0 -9.3645 4.3368c-4.6613 4.568-6.6572 11.364-6.8731 17.7409a28.498 28.498 0 0 0 .9421 8.4932 35.3109 35.3109 0 0 1 -5.9546-1.038 43.9732 43.9732 0 0 1 -10.2112-4.0023c.2692-1.0845.5461-2.1673.8094-3.2528 1.1968-4.9327 2.3589-10.13 1.9075-15.2361a16.2509 16.2509 0 0 0 -2.0309-6.9333 12.1954 12.1954 0 0 0 -5.5539-4.9181 10.5869 10.5869 0 0 0 -9.3738.4343 9.8894 9.8894 0 0 0 -4.6261 8.41c-.251 6.0067 3.0324 11.926 6.9557 16.2485a37.9252 37.9252 0 0 0 8.345 6.8069c-.181.78-.3577 1.5614-.5213 2.3453a136.0107 136.0107 0 0 1 -6.2269 21.123c-.4818 1.2506-.99 2.49-1.5106 3.7242q-3.211-.8836-6.4857-1.4948c.104-.3754.2035-.7475.2947-1.1116l-2.0255-.5083c-.1035.4131-.2192.8379-.34 1.2661a79.5751 79.5751 0 0 0 -15.1171-.9414c-.0553-.3591-.1053-.7188-.1713-1.0766-1.7247-9.3438-6.8308-17.6924-11.3009-25.9271a94.0485 94.0485 0 0 1 -5.9347-12.4673 67.1474 67.1474 0 0 1 -3.5453-15.48 79.0576 79.0576 0 0 1 1.7127-27.1253 5.534 5.534 0 0 1 1.1242.3024l.1679-.4531c.0176 0 .0345-.0017.0521-.0017l.1784.0013.0076-.6418.32-.8629c-.1057-.0393-.2052-.0669-.3084-.1011l.0059-.4824-.2034-.0013c-.2654 0-.5262.0125-.7864.0255a82.9666 82.9666 0 0 1 15.1068-30.0216 98.97 98.97 0 0 1 47.9952-32.4967 89.4353 89.4353 0 0 1 34.2972-3.85 86.692 86.692 0 0 1 31.1536 8.7549q2.0289 1.011 4 2.1258c.1272.126.2575.2537.38.3776l.1042-.1032q.9326.5325 1.8524 1.0854l-.5478.4993c.4749.5213.9215 1.038 1.3276 1.5355l1.0839-.8837a93.1438 93.1438 0 0 1 41.2477 98.1541zm-86.9476 32.6557c3.3189-4.5062 7.1619-8.86 11.906-11.8643a24.2641 24.2641 0 0 1 8.0014-3.3318c2.6961-.5745 5.9077-.3724 7.767 1.8331a6.2689 6.2689 0 0 1 1.3418 3.3638 6.0947 6.0947 0 0 1 -.0915 1.7468 7.49 7.49 0 0 1 -.22.8048c-.03.0907-.0642.18-.0978.2693-.0026 0-.09.22-.1028.2459a8.7832 8.7832 0 0 1 -.7688 1.3066c-.0125.0179-.132.1737-.1608.2138-.0665.0819-.1331.1637-.2022.2435q-.2817.3258-.5875.6289a11.6032 11.6032 0 0 1 -2.5468 1.9541 24.0551 24.0551 0 0 1 -6.4867 2.6936 35.4073 35.4073 0 0 1 -3.55.786c-.2475.0417-.4956.0779-.7433.1167l-.0913.0145-.0755.0092c-.1432.0177-.2862.0355-.4295.0518-.545.0619-1.0912.11-1.6388.14a35.6348 35.6348 0 0 1 -11.2229-1.2263z"/></svg>