<svg width="844" height="152" viewBox="0 0 844 152" fill="none" xmlns="http://www.w3.org/2000/svg">
<path d="M826.097 121.973C822.868 121.973 819.908 121.166 817.217 119.551C814.527 117.937 812.374 115.784 810.76 113.093C809.253 110.403 808.499 107.497 808.499 104.375C808.499 101.146 809.253 98.2404 810.76 95.6572C812.374 92.9665 814.527 90.8138 817.217 89.1994C819.908 87.5849 822.814 86.7777 825.936 86.7777C829.38 86.7777 832.393 87.5849 834.977 89.1994C837.667 90.8138 839.766 92.9665 841.273 95.6572C842.888 98.2404 843.695 101.146 843.695 104.375C843.695 107.497 842.888 110.403 841.273 113.093C839.766 115.784 837.667 117.937 834.977 119.551C832.393 121.166 829.434 121.973 826.097 121.973Z" fill="#1a1a2e"/>
<path d="M734.284 120.036C727.061 120.036 721.207 114.182 721.207 106.958V23.1676C721.207 15.9452 727.061 10.0904 734.284 10.0904C741.506 10.0904 747.361 15.9452 747.361 23.1676V106.958C747.361 114.182 741.506 120.036 734.284 120.036ZM783.364 120.036C776.141 120.036 770.287 114.182 770.287 106.958V74.5077C770.287 70.4177 769.641 67.7269 768.35 66.4354C767.058 65.1438 765.174 64.498 762.699 64.498C760.869 64.498 758.932 64.8747 756.887 65.6281C754.842 66.2739 752.797 67.2964 750.752 68.6956C747.646 70.7658 743.243 70.046 741.548 66.7196L739.173 62.0595C737.394 58.5665 737.897 54.2814 740.831 51.6815C742.32 50.363 743.904 49.0916 745.586 47.869C749.245 45.1782 753.174 43.0256 757.371 41.4111C761.676 39.689 766.197 38.8279 770.933 38.8279C776.207 38.8279 780.512 39.7428 783.848 41.5725C787.185 43.4023 789.768 45.8778 791.598 48.9991C793.428 52.0128 794.665 55.457 795.311 59.3317C796.065 63.2064 796.441 67.2426 796.441 71.4402V106.958C796.441 114.182 790.585 120.036 783.364 120.036Z" fill="#1a1a2e"/>
<path d="M677.612 122.619C671.046 122.619 664.911 121.435 659.207 119.067C656.001 117.649 652.903 115.65 649.91 113.068C645.852 109.567 646.195 103.405 649.918 99.5504C653.975 95.3528 660.542 95.4941 665.572 98.4573C666.47 98.9871 667.363 99.4529 668.248 99.8548C671.907 101.469 675.674 102.277 679.549 102.277C681.486 102.277 683.101 101.9 684.392 101.146C685.684 100.285 686.33 99.2629 686.33 98.0789C686.33 97.0026 685.899 96.0877 685.038 95.3343C684.285 94.5809 682.67 93.8275 680.195 93.0741C677.827 92.3206 674.329 91.352 669.701 90.168C661.198 88.0154 654.955 84.9479 650.973 80.9655C646.99 76.8756 644.999 71.5478 644.999 64.9823C644.999 60.1389 646.291 55.726 648.874 51.7437C651.457 47.6537 655.17 44.4248 660.014 42.0569C664.857 39.5814 670.562 38.3436 677.127 38.3436C684.984 38.3436 691.657 39.7966 697.147 42.7027C699.101 43.7369 700.941 44.8486 702.663 46.0325C707.632 49.4515 707.225 56.4559 702.732 60.4769C698.621 64.1549 692.423 64.0254 687.354 61.8509C687.016 61.7063 686.674 61.5667 686.33 61.4305C682.885 60.0313 679.118 59.3317 675.028 59.3317C672.876 59.3317 671.1 59.7084 669.701 60.4618C668.301 61.1076 667.602 62.0763 667.602 63.3679C667.602 64.5518 668.517 65.6281 670.346 66.5968C672.284 67.4578 676.212 68.588 682.132 69.9872C691.926 72.3551 699.03 75.6378 703.443 79.8354C707.856 83.9254 710.062 89.4684 710.062 96.4644C710.062 101.631 708.663 106.205 705.865 110.187C703.174 114.062 699.353 117.13 694.402 119.39C689.559 121.543 683.962 122.619 677.612 122.619Z" fill="#1a1a2e"/>
<path d="M588.7 122.135C583.103 122.135 578.152 121.058 573.847 118.906C569.541 116.645 566.151 113.524 563.675 109.542C561.308 105.452 560.124 100.824 560.124 95.6572C560.124 90.0604 561.415 85.3247 563.998 81.4499C566.689 77.4676 570.187 74.4539 574.492 72.4089C578.905 70.2563 583.749 69.18 589.023 69.18C596.88 69.18 603.284 71.0097 608.235 74.6692C611.412 76.9479 613.88 79.9364 615.638 83.6345C617.089 86.6835 614.151 89.6349 610.86 88.8866C608.758 88.409 607.266 86.5389 607.266 84.3846V70.1487C607.266 67.4579 606.297 65.1438 604.36 63.2064C602.423 61.2691 599.409 60.3004 595.319 60.3004C592.413 60.3004 589.076 60.6771 585.309 61.4305C584.69 61.555 584.067 61.6946 583.436 61.8543C577.792 63.2737 571.521 61.0269 569.36 55.6218C567.424 50.7834 569.508 45.2119 574.417 43.4629C576.719 42.6438 579.11 41.9056 581.596 41.2497C587.301 39.6352 593.22 38.828 599.355 38.828C606.782 38.828 613.024 40.1734 618.083 42.8641C623.249 45.5549 627.124 49.3758 629.707 54.3269C632.29 59.1703 633.582 64.9285 633.582 71.6017V107.345C633.582 114.355 627.899 120.036 620.892 120.036H618.544C614.422 120.036 610.773 117.372 609.518 113.445L607.922 108.452C607.204 106.203 608.45 103.8 610.702 103.092C613.869 102.097 616.827 104.956 615.291 107.9C613.539 111.26 611.186 114.123 608.235 116.484C603.499 120.251 596.987 122.135 588.7 122.135ZM597.579 104.375C600.593 104.375 603.015 103.568 604.844 101.954C606.674 100.339 607.589 98.2404 607.589 95.6572C607.589 93.1817 606.674 91.1367 604.844 89.5223C603.015 87.9078 600.593 87.1006 597.579 87.1006C594.35 87.1006 591.821 87.9078 589.991 89.5223C588.269 91.1367 587.408 93.1817 587.408 95.6572C587.408 98.2404 588.269 100.339 589.991 101.954C591.821 103.568 594.35 104.375 597.579 104.375Z" fill="#1a1a2e"/>
<path d="M544.887 120.843C540.582 120.843 536.546 120.036 532.778 118.421C529.011 116.699 525.944 113.955 523.576 110.187C521.316 106.42 520.187 101.415 520.187 95.1729V23.0869C520.187 15.9091 526.004 10.0904 533.184 10.0904C540.361 10.0904 546.18 15.9091 546.18 23.0869V85.9704C546.18 90.0604 546.826 92.6974 548.118 93.8813C550.736 95.896 553.768 98.1748 553.768 101.481V115.968C553.768 118.44 552.036 120.537 549.571 120.681C547.849 120.789 546.286 120.843 544.887 120.843Z" fill="#1a1a2e"/>
<path d="M476.591 122.619C470.025 122.619 463.89 121.435 458.186 119.067C454.981 117.649 451.882 115.65 448.889 113.068C444.832 109.567 445.174 103.405 448.898 99.5504C452.955 95.3528 459.522 95.4941 464.552 98.4573C465.45 98.9871 466.342 99.4529 467.227 99.8548C470.886 101.469 474.654 102.277 478.528 102.277C480.466 102.277 482.08 101.9 483.372 101.146C484.663 100.285 485.309 99.2629 485.309 98.0789C485.309 97.0026 484.878 96.0877 484.017 95.3343C483.264 94.5809 481.65 93.8275 479.174 93.0741C476.806 92.3206 473.308 91.352 468.68 90.168C460.177 88.0154 453.935 84.9479 449.952 80.9655C445.97 76.8756 443.979 71.5478 443.979 64.9823C443.979 60.1389 445.27 55.726 447.853 51.7437C450.437 47.6537 454.15 44.4248 458.993 42.0569C463.837 39.5814 469.541 38.3436 476.107 38.3436C483.964 38.3436 490.637 39.7966 496.126 42.7027C498.081 43.7369 499.92 44.8486 501.643 46.0325C506.611 49.4515 506.206 56.4559 501.712 60.4769C497.601 64.1549 491.402 64.0254 486.333 61.8509C485.996 61.7063 485.655 61.5667 485.309 61.4305C481.865 60.0313 478.098 59.3317 474.008 59.3317C471.855 59.3317 470.079 59.7084 468.68 60.4618C467.281 61.1076 466.581 62.0763 466.581 63.3679C466.581 64.5518 467.496 65.6281 469.326 66.5968C471.263 67.4578 475.192 68.588 481.111 69.9872C490.906 72.3551 498.009 75.6378 502.422 79.8354C506.835 83.9254 509.043 89.4684 509.043 96.4644C509.043 101.631 507.642 106.205 504.844 110.187C502.153 114.062 498.332 117.13 493.381 119.39C488.538 121.543 482.941 122.619 476.591 122.619Z" fill="#1a1a2e"/>
<path d="M388.537 121.408C380.465 121.408 373.361 119.632 367.226 116.08C361.199 112.528 356.463 107.577 353.019 101.227C349.574 94.8769 347.852 87.6656 347.852 79.5933C347.852 71.6286 349.574 64.5249 353.019 58.2823C356.463 52.0397 361.199 47.1425 367.226 43.5906C373.361 39.9312 380.465 38.1015 388.537 38.1015C397.686 38.1015 405.543 40.3079 412.108 44.7208C415.113 46.7404 417.723 49.0758 419.938 51.7267C424.444 57.115 421.188 64.7403 414.796 67.6497L410.791 69.4729C406.336 71.5001 401.332 69.1292 397.416 66.1932C395.264 64.4711 392.412 63.61 388.86 63.61C384.662 63.61 381.11 65.0631 378.204 67.9691C375.406 70.8752 374.007 74.7499 374.007 79.5933C374.007 84.6519 375.406 88.6343 378.204 91.5403C381.11 94.3387 384.662 95.738 388.86 95.738C392.412 95.738 395.264 94.9307 397.416 93.3163C401.3 90.4035 406.269 88.0911 410.711 90.0513L414.579 91.7593C421.073 94.6253 424.397 102.323 419.822 107.751C417.596 110.395 414.969 112.741 411.947 114.789C405.381 119.202 397.578 121.408 388.537 121.408Z" fill="#1a1a2e"/>
<path d="M336.916 106.151C336.916 113.418 331.025 119.309 323.758 119.309C316.491 119.309 310.6 113.418 310.6 106.151V53.3582C310.6 46.0912 316.491 40.2002 323.758 40.2002C331.025 40.2002 336.916 46.0912 336.916 53.3582V106.151ZM308.663 15.176C308.663 10.5479 310.062 6.8884 312.86 4.19762C315.659 1.3992 319.318 0 323.839 0C328.467 0 332.126 1.3992 334.817 4.19762C337.508 6.8884 338.853 10.5479 338.853 15.176C338.853 19.5889 337.508 23.1945 334.817 25.9929C332.126 28.6837 328.467 30.0291 323.839 30.0291C319.318 30.0291 315.659 28.6837 312.86 25.9929C310.062 23.1945 308.663 19.5889 308.663 15.176Z" fill="#1a1a2e"/>
<path d="M253.251 151.76C249.053 151.76 244.694 151.114 240.174 149.823C235.761 148.531 231.617 146.378 227.742 143.365C223.975 140.459 220.908 136.476 218.54 131.418C217.738 129.814 218.392 127.865 219.998 127.069L227.256 123.471C232.127 121.057 237.848 122.628 241.728 126.436C242.343 127.04 242.918 127.543 243.403 127.866C246.094 129.588 249.484 130.449 253.574 130.449C257.987 130.449 261.592 128.996 264.391 126.09C267.297 123.292 268.75 119.04 268.75 113.336V90.5717H270.364V61.6727H268.75L273.064 48.0136C274.532 43.3624 278.847 40.2003 283.724 40.2003C289.898 40.2003 294.904 45.2058 294.904 51.3803V107.524C294.904 116.887 293.29 124.852 290.061 131.418C286.832 137.983 282.096 142.988 275.854 146.432C269.719 149.984 262.184 151.76 253.251 151.76ZM249.699 115.273C242.703 115.273 236.461 113.659 230.971 110.43C225.482 107.093 221.177 102.519 218.056 96.7066C214.934 90.8946 213.374 84.2752 213.374 76.8487C213.374 69.4221 214.88 62.8028 217.894 56.9907C221.015 51.071 225.267 46.4429 230.648 43.1063C236.03 39.7697 242.219 38.1015 249.215 38.1015C255.673 38.1015 261.323 39.7697 266.167 43.1063C271.01 46.3352 274.777 50.8557 277.468 56.6678C280.266 62.3723 281.666 69.0992 281.666 76.8487C281.666 84.921 280.32 91.8632 277.629 97.6753C275.046 103.38 271.333 107.739 266.49 110.753C261.754 113.766 256.157 115.273 249.699 115.273ZM255.027 92.3476C259.332 92.3476 262.884 90.8946 265.682 87.9885C268.588 84.9748 270.041 81.2616 270.041 76.8487C270.041 72.2205 268.588 68.4535 265.682 65.5474C262.884 62.5337 259.332 61.0269 255.027 61.0269C250.614 61.0269 246.955 62.5337 244.049 65.5474C241.25 68.4535 239.851 72.2205 239.851 76.8487C239.851 81.2616 241.25 84.9748 244.049 87.9885C246.955 90.8946 250.614 92.3476 255.027 92.3476Z" fill="#1a1a2e"/>
<path d="M158.854 121.408C153.257 121.408 148.306 120.332 144.001 118.179C139.695 115.919 136.305 112.798 133.829 108.815C131.462 104.725 130.278 100.097 130.278 94.9307C130.278 89.3339 131.569 84.5981 134.152 80.7234C136.843 76.7411 140.341 73.7274 144.646 71.6824C149.059 69.5298 153.903 68.4534 159.177 68.4534C167.034 68.4534 173.438 70.2832 178.389 73.9426C183.34 77.4945 186.569 82.7684 188.076 89.7644L177.42 87.3427V69.4221C177.42 66.7313 176.451 64.4173 174.514 62.4799C172.577 60.5426 169.563 59.5739 165.473 59.5739C162.567 59.5739 159.23 59.9506 155.463 60.704C154.845 60.8276 154.221 60.9687 153.591 61.1273C147.946 62.5474 141.675 60.2997 139.514 54.8951C137.578 50.0569 139.663 44.486 144.572 42.7372C146.873 41.9175 149.265 41.1795 151.75 40.5232C157.454 38.9087 163.374 38.1015 169.509 38.1015C176.936 38.1015 183.178 39.4468 188.237 42.1376C193.403 44.8284 197.278 48.6493 199.861 53.6003C202.444 58.4437 203.736 64.202 203.736 70.8752V106.619C203.736 113.628 198.055 119.309 191.045 119.309C185.526 119.309 180.639 115.741 178.959 110.482L176.774 103.649L188.076 100.097C186.461 106.663 183.232 111.883 178.389 115.757C173.653 119.524 167.141 121.408 158.854 121.408ZM167.733 103.649C170.747 103.649 173.169 102.842 174.998 101.227C176.828 99.6127 177.743 97.5139 177.743 94.9307C177.743 92.4552 176.828 90.4102 174.998 88.7957C173.169 87.1813 170.747 86.374 167.733 86.374C164.504 86.374 161.975 87.1813 160.145 88.7957C158.423 90.4102 157.562 92.4552 157.562 94.9307C157.562 97.5139 158.423 99.6127 160.145 101.227C161.975 102.842 164.504 103.649 167.733 103.649Z" fill="#1a1a2e"/>
<path d="M13.0772 119.309C5.85485 119.309 0 113.454 0 106.232V57.0176C0 47.7297 7.52939 40.2003 16.8174 40.2003H19.3736L24.5399 56.5064L15.0146 55.5377C17.7053 52.524 20.7728 49.7256 24.217 47.1425C27.7688 44.4517 31.6436 42.2991 35.8412 40.6846C40.0388 38.9625 44.4517 38.1015 49.0798 38.1015C54.2461 38.1015 58.3899 39.0163 61.5112 40.846C64.7402 42.6758 67.2157 45.1513 68.9378 48.2726C70.6599 51.2863 71.8438 54.7305 72.4896 58.6052C73.243 62.4799 73.6197 66.5161 73.6197 70.7137V106.232C73.6197 113.454 67.7649 119.309 60.5425 119.309C53.3202 119.309 47.4654 113.454 47.4654 106.232V73.7812C47.4654 69.6912 46.8196 67.0004 45.528 65.7089C44.2364 64.4173 42.5681 63.7715 40.5231 63.7715C37.6171 63.7715 34.7649 64.5787 31.9665 66.1932C29.2757 67.7 26.5311 69.8527 23.7327 72.6511L18.082 59.5739H26.1544V106.232C26.1544 113.454 20.2996 119.309 13.0772 119.309ZM107.766 119.309C100.499 119.309 94.6078 113.418 94.6078 106.151V73.7812C94.6078 69.6912 93.962 67.0004 92.6705 65.7089C91.4865 64.4173 89.872 63.7715 87.8271 63.7715C85.0286 63.7715 82.2302 64.5787 79.4318 66.1932C76.6334 67.7 73.835 69.8527 71.0366 72.6511L62.4799 55.5377C65.1707 52.524 68.2382 49.7256 71.6824 47.1425C75.2342 44.4517 79.1089 42.2991 83.3065 40.6846C87.5042 38.9625 91.8632 38.1015 96.3837 38.1015C101.55 38.1015 105.748 39.0163 108.977 40.846C112.206 42.6758 114.681 45.1513 116.403 48.2726C118.125 51.2863 119.309 54.7305 119.955 58.6052C120.601 62.4799 120.924 66.5161 120.924 70.7137V106.151C120.924 113.418 115.033 119.309 107.766 119.309Z" fill="#1a1a2e"/>
<g filter="url(#filter0_g_62_72)">
<path d="M420.001 135.516C417.102 141.461 409.987 144.002 403.978 141.239C397.774 138.386 395.131 130.988 398.124 124.85L450.742 16.9292C453.641 10.9844 460.756 8.44297 466.765 11.2061C472.969 14.059 475.612 21.4574 472.619 27.5954L420.001 135.516Z" fill="#FF0000"/>
</g>
<defs>
<filter id="filter0_g_62_72" x="392.89" y="6.09042" width="84.9628" height="140.264" filterUnits="userSpaceOnUse" color-interpolation-filters="sRGB">
<feFlood flood-opacity="0" result="BackgroundImageFix"/>
<feBlend mode="normal" in="SourceGraphic" in2="BackgroundImageFix" result="shape"/>
<feTurbulence type="fractalNoise" baseFrequency="0.66666668653488159 0.66666668653488159" numOctaves="3" seed="8916" />
<feDisplacementMap in="shape" scale="8" xChannelSelector="R" yChannelSelector="G" result="displacedImage" width="100%" height="100%" />
<feMerge result="effect1_texture_62_72">
<feMergeNode in="displacedImage"/>
</feMerge>
</filter>
</defs>
</svg>
