<svg width="583" height="105" viewBox="0 0 583 105" fill="none" xmlns="http://www.w3.org/2000/svg">
<path d="M570.16 84.1839C567.931 84.1839 565.888 83.6268 564.031 82.5125C562.174 81.3982 560.688 79.9125 559.574 78.0554C558.534 76.1982 558.014 74.1926 558.014 72.0383C558.014 69.8097 558.534 67.804 559.574 66.0212C560.688 64.164 562.174 62.6783 564.031 61.564C565.888 60.4498 567.894 59.8926 570.048 59.8926C572.425 59.8926 574.505 60.4498 576.288 61.564C578.145 62.6783 579.594 64.164 580.634 66.0212C581.748 67.804 582.305 69.8097 582.305 72.0383C582.305 74.1926 581.748 76.1982 580.634 78.0554C579.594 79.9125 578.145 81.3982 576.288 82.5125C574.505 83.6268 572.462 84.1839 570.16 84.1839Z" fill="#1a1a2e"/>
<path d="M506.792 82.8468C501.807 82.8468 497.766 78.8064 497.766 73.8211V15.9899C497.766 11.0052 501.807 6.96426 506.792 6.96426C511.776 6.96426 515.817 11.0052 515.817 15.9899V73.8211C515.817 78.8064 511.776 82.8468 506.792 82.8468ZM540.666 82.8468C535.681 82.8468 531.64 78.8064 531.64 73.8211V51.4241C531.64 48.6012 531.195 46.7441 530.303 45.8527C529.412 44.9612 528.112 44.5155 526.403 44.5155C525.14 44.5155 523.803 44.7755 522.392 45.2955C520.98 45.7412 519.569 46.447 518.157 47.4127C516.014 48.8415 512.975 48.3447 511.805 46.0488L510.166 42.8325C508.938 40.4217 509.285 37.4642 511.31 35.6698C512.338 34.7598 513.431 33.8823 514.592 33.0384C517.117 31.1813 519.829 29.6956 522.726 28.5813C525.697 27.3928 528.817 26.7985 532.086 26.7985C535.726 26.7985 538.697 27.4299 541 28.6927C543.303 29.9556 545.086 31.6642 546.349 33.8184C547.612 35.8984 548.466 38.2756 548.912 40.9498C549.432 43.6241 549.692 46.4098 549.692 49.3069V73.8211C549.692 78.8064 545.65 82.8468 540.666 82.8468Z" fill="#1a1a2e"/>
<path d="M467.677 84.6296C463.146 84.6296 458.911 83.8125 454.974 82.1782C452.762 81.1997 450.624 79.8197 448.558 78.038C445.757 75.6214 445.994 71.3685 448.564 68.7082C451.363 65.8111 455.896 65.9086 459.368 67.9537C459.987 68.3194 460.604 68.6409 461.214 68.9183C463.74 70.0326 466.34 70.5897 469.014 70.5897C470.351 70.5897 471.466 70.3297 472.357 69.8097C473.249 69.2154 473.694 68.5097 473.694 67.6926C473.694 66.9497 473.397 66.3183 472.803 65.7983C472.283 65.2783 471.169 64.7583 469.46 64.2383C467.826 63.7183 465.411 63.0497 462.217 62.2326C456.349 60.7469 452.04 58.6298 449.291 55.8812C446.543 53.0583 445.169 49.3812 445.169 44.8498C445.169 41.507 446.06 38.4613 447.843 35.7127C449.626 32.8899 452.189 30.6613 455.531 29.027C458.874 27.3185 462.811 26.4642 467.343 26.4642C472.766 26.4642 477.371 27.467 481.16 29.4727C482.509 30.1866 483.778 30.9538 484.967 31.7709C488.397 34.1307 488.116 38.965 485.015 41.7403C482.178 44.2787 477.899 44.1894 474.401 42.6886C474.168 42.5888 473.932 42.4924 473.694 42.3984C471.317 41.4327 468.717 40.9498 465.894 40.9498C464.409 40.9498 463.183 41.2098 462.217 41.7298C461.251 42.1755 460.769 42.8441 460.769 43.7355C460.769 44.5527 461.4 45.2955 462.663 45.9641C464 46.5584 466.711 47.3384 470.797 48.3041C477.557 49.9384 482.46 52.2041 485.506 55.1012C488.551 57.924 490.074 61.7497 490.074 66.5783C490.074 70.144 489.108 73.3011 487.177 76.0497C485.32 78.724 482.683 80.8411 479.266 82.4011C475.923 83.8868 472.06 84.6296 467.677 84.6296Z" fill="#1a1a2e"/>
<path d="M406.312 84.2954C402.449 84.2954 399.032 83.5525 396.06 82.0668C393.089 80.5068 390.749 78.3525 389.04 75.604C387.406 72.7811 386.589 69.5869 386.589 66.0212C386.589 62.1583 387.48 58.8898 389.263 56.2155C391.12 53.4669 393.534 51.3869 396.506 49.9755C399.552 48.4898 402.894 47.747 406.534 47.747C411.957 47.747 416.377 49.0098 419.794 51.5355C421.987 53.1083 423.691 55.1708 424.904 57.7232C425.906 59.8276 423.878 61.8647 421.606 61.3481C420.155 61.0185 419.126 59.7278 419.126 58.2409V48.4155C419.126 46.5584 418.457 44.9612 417.12 43.6241C415.783 42.287 413.703 41.6184 410.88 41.6184C408.874 41.6184 406.572 41.8784 403.972 42.3984C403.544 42.4843 403.114 42.5806 402.679 42.6909C398.783 43.6705 394.455 42.1198 392.963 38.3893C391.627 35.0499 393.066 31.2045 396.454 29.9974C398.043 29.4321 399.693 28.9226 401.409 28.4699C405.346 27.3556 409.432 26.7985 413.666 26.7985C418.792 26.7985 423.1 27.727 426.592 29.5842C430.157 31.4413 432.831 34.0784 434.614 37.4956C436.397 40.8384 437.289 44.8127 437.289 49.4184V74.0881C437.289 78.9259 433.367 82.8468 428.53 82.8468H426.91C424.065 82.8468 421.546 81.0082 420.68 78.298L419.578 74.8518C419.083 73.3 419.943 71.6413 421.497 71.1527C423.683 70.4655 425.724 72.4387 424.665 74.4711C423.455 76.7902 421.831 78.7657 419.794 80.3954C416.526 82.9954 412.032 84.2954 406.312 84.2954ZM412.44 72.0383C414.52 72.0383 416.192 71.4811 417.454 70.3669C418.717 69.2526 419.349 67.804 419.349 66.0212C419.349 64.3126 418.717 62.9012 417.454 61.7869C416.192 60.6726 414.52 60.1155 412.44 60.1155C410.212 60.1155 408.466 60.6726 407.203 61.7869C406.014 62.9012 405.42 64.3126 405.42 66.0212C405.42 67.804 406.014 69.2526 407.203 70.3669C408.466 71.4811 410.212 72.0383 412.44 72.0383Z" fill="#1a1a2e"/>
<path d="M376.073 83.4039C373.101 83.4039 370.316 82.8468 367.716 81.7325C365.116 80.544 362.998 78.6497 361.364 76.0497C359.804 73.4497 359.025 69.9954 359.025 65.6869V15.9342C359.025 10.9802 363.04 6.96426 367.995 6.96426C372.949 6.96426 376.965 10.9802 376.965 15.9342V59.3355C376.965 62.1583 377.411 63.9783 378.302 64.7955C380.11 66.186 382.202 67.7587 382.202 70.0407V80.039C382.202 81.7453 381.007 83.1927 379.305 83.2925C378.117 83.3668 377.038 83.4039 376.073 83.4039Z" fill="#1a1a2e"/>
<path d="M328.936 84.6296C324.404 84.6296 320.17 83.8125 316.233 82.1782C314.021 81.1997 311.882 79.8197 309.817 78.038C307.016 75.6214 307.253 71.3685 309.823 68.7082C312.622 65.8111 317.155 65.9086 320.627 67.9537C321.247 68.3194 321.862 68.6409 322.473 68.9183C324.999 70.0326 327.599 70.5897 330.273 70.5897C331.61 70.5897 332.724 70.3297 333.616 69.8097C334.507 69.2154 334.953 68.5097 334.953 67.6926C334.953 66.9497 334.656 66.3183 334.061 65.7983C333.541 65.2783 332.427 64.7583 330.719 64.2383C329.084 63.7183 326.67 63.0497 323.476 62.2326C317.607 60.7469 313.299 58.6298 310.55 55.8812C307.802 53.0583 306.427 49.3812 306.427 44.8498C306.427 41.507 307.319 38.4613 309.102 35.7127C310.884 32.8899 313.447 30.6613 316.79 29.027C320.133 27.3185 324.07 26.4642 328.601 26.4642C334.024 26.4642 338.63 27.467 342.419 29.4727C343.768 30.1866 345.037 30.9538 346.226 31.7709C349.655 34.1307 349.375 38.965 346.274 41.7403C343.436 44.2787 339.158 44.1894 335.66 42.6886C335.427 42.5888 335.192 42.4924 334.953 42.3984C332.576 41.4327 329.976 40.9498 327.153 40.9498C325.667 40.9498 324.441 41.2098 323.476 41.7298C322.51 42.1755 322.027 42.8441 322.027 43.7355C322.027 44.5527 322.659 45.2955 323.921 45.9641C325.259 46.5584 327.97 47.3384 332.056 48.3041C338.816 49.9384 343.719 52.2041 346.764 55.1012C349.81 57.924 351.333 61.7497 351.333 66.5783C351.333 70.144 350.367 73.3011 348.436 76.0497C346.579 78.724 343.941 80.8411 340.524 82.4011C337.181 83.8868 333.319 84.6296 328.936 84.6296Z" fill="#1a1a2e"/>
<path d="M268.162 83.7939C262.591 83.7939 257.688 82.5682 253.454 80.1168C249.294 77.6654 246.025 74.2483 243.648 69.8654C241.271 65.4826 240.082 60.5055 240.082 54.934C240.082 49.4369 241.271 44.5341 243.648 40.2255C246.025 35.917 249.294 32.537 253.454 30.0856C257.688 27.5599 262.591 26.297 268.162 26.297C274.477 26.297 279.899 27.8199 284.431 30.8656C286.505 32.2595 288.306 33.8714 289.835 35.701C292.945 39.4199 290.697 44.6828 286.286 46.6908L283.522 47.9491C280.447 49.3483 276.993 47.7119 274.291 45.6855C272.805 44.497 270.837 43.9027 268.385 43.9027C265.488 43.9027 263.037 44.9055 261.031 46.9112C259.099 48.9169 258.134 51.5912 258.134 54.934C258.134 58.4255 259.099 61.174 261.031 63.1797C263.037 65.1111 265.488 66.0769 268.385 66.0769C270.837 66.0769 272.805 65.5197 274.291 64.4054C276.971 62.3951 280.401 60.7991 283.466 62.152L286.136 63.3309C290.618 65.3089 292.912 70.6217 289.755 74.368C288.218 76.1929 286.405 77.8121 284.319 79.2254C279.788 82.2711 274.402 83.7939 268.162 83.7939Z" fill="#1a1a2e"/>
<path d="M232.534 73.264C232.534 78.2795 228.468 82.3454 223.453 82.3454C218.437 82.3454 214.372 78.2795 214.372 73.264V36.827C214.372 31.8115 218.437 27.7456 223.453 27.7456C228.468 27.7456 232.534 31.8115 232.534 36.827V73.264ZM213.034 10.4742C213.034 7.27997 214 4.75427 215.931 2.89713C217.863 0.965709 220.389 0 223.509 0C226.703 0 229.229 0.965709 231.086 2.89713C232.943 4.75427 233.871 7.27997 233.871 10.4742C233.871 13.5199 232.943 16.0085 231.086 17.9399C229.229 19.7971 226.703 20.7256 223.509 20.7256C220.389 20.7256 217.863 19.7971 215.931 17.9399C214 16.0085 213.034 13.5199 213.034 10.4742Z" fill="#1a1a2e"/>
<path d="M174.79 104.742C171.893 104.742 168.884 104.297 165.764 103.405C162.719 102.514 159.859 101.028 157.184 98.9482C154.584 96.9425 152.467 94.1939 150.833 90.7025C150.279 89.5959 150.731 88.2504 151.839 87.7009L156.849 85.2177C160.21 83.5516 164.159 84.636 166.837 87.2642C167.262 87.681 167.659 88.0281 167.993 88.2511C169.85 89.4396 172.19 90.0339 175.013 90.0339C178.059 90.0339 180.547 89.0311 182.479 87.0253C184.484 85.0939 185.487 82.1597 185.487 78.2225V62.5112H186.601V42.5655H185.487L188.464 33.1382C189.478 29.9281 192.456 27.7456 195.822 27.7456C200.083 27.7456 203.538 31.2003 203.538 35.4619V74.2111C203.538 80.6739 202.424 86.1711 200.196 90.7025C197.967 95.2339 194.699 98.6882 190.39 101.065C186.156 103.517 180.956 104.742 174.79 104.742ZM172.339 79.5597C167.51 79.5597 163.201 78.4454 159.413 76.2168C155.624 73.914 152.653 70.7568 150.499 66.7454C148.344 62.734 147.267 58.1655 147.267 53.0398C147.267 47.9141 148.307 43.3455 150.387 39.3341C152.542 35.2484 155.476 32.0541 159.19 29.7513C162.904 27.4485 167.176 26.297 172.004 26.297C176.461 26.297 180.361 27.4485 183.704 29.7513C187.047 31.9799 189.647 35.0998 191.504 39.1113C193.436 43.0484 194.401 47.6912 194.401 53.0398C194.401 58.6112 193.473 63.4026 191.616 67.414C189.833 71.3511 187.27 74.3597 183.927 76.4397C180.659 78.5197 176.796 79.5597 172.339 79.5597ZM176.016 63.7369C178.987 63.7369 181.439 62.734 183.37 60.7283C185.376 58.6483 186.379 56.0855 186.379 53.0398C186.379 49.8455 185.376 47.2455 183.37 45.2398C181.439 43.1598 178.987 42.1198 176.016 42.1198C172.97 42.1198 170.444 43.1598 168.439 45.2398C166.507 47.2455 165.541 49.8455 165.541 53.0398C165.541 56.0855 166.507 58.6483 168.439 60.7283C170.444 62.734 172.97 63.7369 176.016 63.7369Z" fill="#1a1a2e"/>
<path d="M109.638 83.7939C105.776 83.7939 102.358 83.0511 99.387 81.5654C96.4156 80.0054 94.0756 77.8511 92.367 75.1025C90.7327 72.2797 89.9156 69.0854 89.9156 65.5197C89.9156 61.6569 90.807 58.3883 92.5899 55.714C94.447 52.9655 96.8613 50.8855 99.8327 49.4741C102.878 47.9884 106.221 47.2455 109.861 47.2455C115.284 47.2455 119.704 48.5084 123.121 51.0341C126.538 53.4855 128.767 57.1255 129.807 61.954L122.453 60.2826V47.9141C122.453 46.0569 121.784 44.4598 120.447 43.1227C119.11 41.7855 117.03 41.117 114.207 41.117C112.201 41.117 109.898 41.377 107.298 41.897C106.872 41.9823 106.441 42.0797 106.006 42.1891C102.11 43.1692 97.7822 41.6179 96.2902 37.8878C94.9545 34.5485 96.3932 30.7035 99.7811 29.4965C101.369 28.9308 103.021 28.4215 104.736 27.9684C108.673 26.8542 112.758 26.297 116.993 26.297C122.118 26.297 126.427 27.2256 129.918 29.0827C133.484 30.9399 136.158 33.577 137.941 36.9941C139.724 40.337 140.615 44.3112 140.615 48.9169V73.5869C140.615 78.424 136.694 82.3454 131.857 82.3454C128.047 82.3454 124.674 79.8823 123.515 76.2531L122.007 71.5368L129.807 69.0854C128.693 73.6168 126.464 77.2197 123.121 79.8939C119.853 82.4939 115.358 83.7939 109.638 83.7939ZM115.767 71.5368C117.847 71.5368 119.518 70.9797 120.781 69.8654C122.044 68.7511 122.675 67.3026 122.675 65.5197C122.675 63.8112 122.044 62.3997 120.781 61.2854C119.518 60.1712 117.847 59.614 115.767 59.614C113.538 59.614 111.793 60.1712 110.53 61.2854C109.341 62.3997 108.747 63.8112 108.747 65.5197C108.747 67.3026 109.341 68.7511 110.53 69.8654C111.793 70.9797 113.538 71.5368 115.767 71.5368Z" fill="#1a1a2e"/>
<path d="M9.02568 82.3454C4.04093 82.3454 0 78.3045 0 73.3197V39.3527C0 32.9423 5.19667 27.7456 11.6071 27.7456H13.3714L16.9371 38.9998L10.3628 38.3313C12.2199 36.2513 14.3371 34.3199 16.7142 32.537C19.1656 30.6799 21.8399 29.1942 24.737 28.0799C27.6342 26.8913 30.6799 26.297 33.8741 26.297C37.4398 26.297 40.2998 26.9285 42.4541 28.1913C44.6827 29.4542 46.3912 31.1627 47.5798 33.317C48.7684 35.397 49.5855 37.7741 50.0312 40.4484C50.5512 43.1227 50.8112 45.9084 50.8112 48.8055V73.3197C50.8112 78.3045 46.7703 82.3454 41.7855 82.3454C36.8008 82.3454 32.7599 78.3045 32.7599 73.3197V50.9226C32.7599 48.0998 32.3142 46.2427 31.4227 45.3512C30.5313 44.4598 29.3799 44.0141 27.9685 44.0141C25.9628 44.0141 23.9942 44.5712 22.0628 45.6855C20.2056 46.7255 18.3114 48.2112 16.3799 50.1426L12.4799 41.117H18.0514V73.3197C18.0514 78.3045 14.0105 82.3454 9.02568 82.3454ZM74.3783 82.3454C69.3627 82.3454 65.2969 78.2795 65.2969 73.264V50.9226C65.2969 48.0998 64.8512 46.2427 63.9597 45.3512C63.1426 44.4598 62.0283 44.0141 60.6169 44.0141C58.6855 44.0141 56.7541 44.5712 54.8226 45.6855C52.8912 46.7255 50.9598 48.2112 49.0284 50.1426L43.1227 38.3313C44.9798 36.2513 47.097 34.3199 49.4741 32.537C51.9255 30.6799 54.5998 29.1942 57.4969 28.0799C60.394 26.8913 63.4026 26.297 66.5226 26.297C70.0883 26.297 72.9854 26.9285 75.214 28.1913C77.4425 29.4542 79.1511 31.1627 80.3397 33.317C81.5282 35.397 82.3454 37.7741 82.7911 40.4484C83.2368 43.1227 83.4597 45.9084 83.4597 48.8055V73.264C83.4597 78.2795 79.3938 82.3454 74.3783 82.3454Z" fill="#1a1a2e"/>
<path d="M290.573 93.0429C288.572 97.1462 283.661 98.9001 279.514 96.993C275.232 95.0243 273.408 89.9182 275.474 85.6814L311.79 11.1932C313.79 7.09009 318.702 5.33596 322.849 7.24308C327.131 9.21218 328.955 14.3187 326.889 18.5552L290.573 93.0429Z" fill="#393BFF"/>
</svg>
